<svg width="19" height="19" viewBox="0 0 19 19" fill="none" xmlns="http://www.w3.org/2000/svg">
<path d="M6.38271 8.09856L5.32191 9.15906L8.24465 12.0826L9.30545 11.0221L6.38271 8.09856Z" fill="white"/>
<path d="M11.6704 6.47576L7.15496 10.9912L8.27447 12.1107L12.7899 7.59528L11.6704 6.47576Z" fill="white"/>
<path d="M9.05554 16.2361C8.77467 16.2361 8.49342 16.2196 8.21892 16.1874L8.39442 14.6975C8.61079 14.7234 8.83317 14.7361 9.05554 14.7361V16.2361Z" fill="white"/>
<path d="M6.04429 13.8623L5.24179 15.1298C5.68804 15.4148 6.16804 15.6473 6.67054 15.8273L7.17304 14.4136C6.77929 14.2748 6.40054 14.0873 6.04429 13.8623Z" fill="white"/>
<path d="M5.06554 13.0786L4.00429 14.1361C3.62929 13.7573 3.29554 13.3411 3.01429 12.8911L4.28554 12.0961C4.50679 12.4486 4.76929 12.7786 5.06554 13.0786Z" fill="white"/>
<path d="M3.74179 10.9635L2.32804 11.4585C2.15179 10.956 2.03179 10.4347 1.97554 9.90972L3.46429 9.74097C3.51304 10.1572 3.60679 10.5697 3.74179 10.9635Z" fill="white"/>
<path d="M3.74179 7.26237C3.60304 7.65612 3.50929 8.06862 3.46429 8.48487L1.97554 8.31987C2.03179 7.79112 2.15179 7.26987 2.32429 6.77112L3.74179 7.26237Z" fill="white"/>
<path d="M5.06179 5.14726C4.76554 5.44726 4.50679 5.77726 4.28179 6.13351L3.01054 5.33851C3.29179 4.88851 3.62554 4.46851 3.99679 4.09351L5.06179 5.14726Z" fill="white"/>
<path d="M7.16554 3.81231C6.77179 3.95106 6.39304 4.13481 6.04054 4.35981L5.23429 3.09606C5.68429 2.81106 6.16429 2.57481 6.66304 2.39856L7.16554 3.81231Z" fill="white"/>
<path d="M8.39367 3.52471L8.21929 2.03483C8.49529 2.00221 8.77654 1.98608 9.05554 1.98608V3.48608C8.83467 3.48608 8.61192 3.49921 8.39367 3.52471Z" fill="white"/>
<path d="M9.05554 16.2361V14.7361C12.1572 14.7361 14.6805 12.2127 14.6805 9.11109C14.6805 6.00946 12.1572 3.48608 9.05554 3.48608V1.98608C12.9844 1.98608 16.1805 5.18221 16.1805 9.11109C16.1805 13.04 12.9844 16.2361 9.05554 16.2361Z" fill="white"/>
</svg>
