<svg xmlns="http://www.w3.org/2000/svg" viewBox="0 0 1309.93 596.62"><defs><style>.cls-1{fill:#e8621f;}.cls-2{fill:#fff;}</style></defs><g id="Camada_2" data-name="Camada 2"><g id="Camada_1-2" data-name="Camada 1"><polygon class="cls-1" points="699.3 334.1 699.3 303.31 729.8 303.31 729.8 293.31 699.3 293.31 699.3 262.53 689.3 262.53 689.3 293.31 662.67 293.31 662.67 303.31 689.3 303.31 689.3 334.1 699.3 334.1"/><path class="cls-1" d="M956.42,417.64l-1.18,2.53C908.05,521.05,805.62,586.23,694.3,586.23s-213.74-65.18-260.93-166l-1.18-2.53-9.42,4.4,1.19,2.53c48.89,104.51,155,172,270.34,172s221.46-67.53,270.35-172l1.18-2.53Z"/><path class="cls-1" d="M433.38,176.41C480.59,75.56,583,10.39,694.3,10.39S908,75.56,955.22,176.41L956.4,179l9.42-4.41L964.63,172C915.73,67.52,809.62,0,694.3,0S472.87,67.52,424,172l-1.18,2.53L432.2,179Z"/><path class="cls-2" d="M61.69,229.86a81.77,81.77,0,0,1,40.92-10.4c22,0,39.41,6.42,53.24,19.61l6.57,6.27,14.24-16.61L171,223.09a83.9,83.9,0,0,0-30.76-19.41,109.37,109.37,0,0,0-37.65-6.41c-19,0-36.57,4.42-52.13,13.14a97.57,97.57,0,0,0-37,36.3C4.54,262,0,279.39,0,298.31s4.54,36.29,13.48,51.61a97.47,97.47,0,0,0,37,36.29c15.54,8.72,33.08,13.14,52.13,13.14a107.39,107.39,0,0,0,37.56-6.56A85,85,0,0,0,171,373.26l5.64-5.63L162.41,351l-6.56,6.27c-14,13.37-31.42,19.87-53.24,19.87a81.76,81.76,0,0,1-40.92-10.39,76.47,76.47,0,0,1-28.75-28.4,81.74,81.74,0,0,1,0-80.12A76.52,76.52,0,0,1,61.69,229.86Z"/><polygon class="cls-2" points="383.06 351.34 298.79 203.87 289.92 203.87 289.92 392.75 300.75 392.75 300.75 228.93 379.87 366.83 386.25 366.83 465.37 228.44 465.37 392.75 476.19 392.75 476.19 203.87 467.33 203.87 383.06 351.34"/><path class="cls-2" d="M1043.54,305.42c8.23-10.32,12.4-23.28,12.4-38.53,0-19.8-6.77-35.46-20.13-46.53-13.2-10.94-31.59-16.49-54.68-16.49H916.28V392.75H927.1V329.91h54a118.49,118.49,0,0,0,20.25-1.55l46.41,64.39h13.44l-48.52-67.17C1025.71,321.57,1036.08,314.79,1043.54,305.42Zm1.57-38.53c0,16.68-5.43,29.71-16.15,38.71s-26.78,13.75-47.3,13.75H927.1V214.43h54.56c20.52,0,36.43,4.63,47.3,13.75S1045.11,250.21,1045.11,266.89Z"/><polygon class="cls-2" points="1193.15 382.19 1193.15 302.15 1294.22 302.15 1294.22 291.59 1193.15 291.59 1193.15 214.43 1306.01 214.43 1306.01 203.87 1182.32 203.87 1182.32 392.75 1309.93 392.75 1309.93 382.19 1193.15 382.19"/><path class="cls-2" d="M745.52,215.49c-14.68-8.24-31.26-12.41-49.28-12.41s-34.61,4.17-49.29,12.41a91.73,91.73,0,0,0-34.82,34.15c-8.42,14.42-12.69,30.79-12.69,48.67s4.27,34.26,12.69,48.67A91.68,91.68,0,0,0,647,381.14c14.66,8.23,31.24,12.4,49.29,12.4s34.62-4.17,49.28-12.4A91.78,91.78,0,0,0,780.35,347c8.42-14.41,12.69-30.79,12.69-48.67s-4.27-34.25-12.69-48.67A91.82,91.82,0,0,0,745.52,215.49Zm36.69,82.82a84.8,84.8,0,0,1-11.27,43.24A81.32,81.32,0,0,1,740,371.94a92.46,92.46,0,0,1-87.61,0,81.34,81.34,0,0,1-30.9-30.4,88.59,88.59,0,0,1,0-86.48,81.32,81.32,0,0,1,30.9-30.39,92.5,92.5,0,0,1,87.61,0,81.39,81.39,0,0,1,30.9,30.39A84.8,84.8,0,0,1,782.21,298.31Z"/></g></g></svg>