<svg xmlns="http://www.w3.org/2000/svg" viewBox="0 0 2000 481.35"><defs><style>.cls-1{fill:#e8621f;}.cls-2{fill:#fff;}</style></defs><g id="Camada_2" data-name="Camada 2"><g id="Camada_1-2" data-name="Camada 1"><polygon class="cls-1" points="564.19 269.54 564.19 244.71 588.79 244.71 588.79 236.64 564.19 236.64 564.19 211.8 556.12 211.8 556.12 236.64 534.63 236.64 534.63 244.71 556.12 244.71 556.12 269.54 564.19 269.54"/><path class="cls-1" d="M771.63,336.94l-1,2.05a232.38,232.38,0,0,1-421,0l-1-2-7.59,3.56,1,2c39.45,84.32,125.06,138.8,218.11,138.8s178.67-54.49,218.12-138.81l1-2Z"/><path class="cls-1" d="M349.65,142.33C387.73,61,470.36,8.39,560.15,8.39A233.31,233.31,0,0,1,770.66,142.33l1,2,7.6-3.56-1-2C738.8,54.47,653.19,0,560.15,0S381.51,54.47,342.05,138.77l-.95,2,7.59,3.56Z"/><path class="cls-2" d="M49.77,185.45a66,66,0,0,1,33-8.39c17.74,0,31.79,5.17,42.95,15.82l5.29,5.06,11.5-13.4L138,180a67.69,67.69,0,0,0-24.82-15.66,87.93,87.93,0,0,0-30.37-5.18,84.86,84.86,0,0,0-42.06,10.61A78.59,78.59,0,0,0,10.88,199a85.1,85.1,0,0,0,0,83.27,78.59,78.59,0,0,0,29.85,29.28,84.91,84.91,0,0,0,42.06,10.6,86.86,86.86,0,0,0,30.3-5.29A68.57,68.57,0,0,0,138,301.14l4.54-4.54L131,283.2l-5.29,5.06c-11.3,10.78-25.35,16-42.95,16a65.93,65.93,0,0,1-33-8.39A61.7,61.7,0,0,1,26.57,273a66,66,0,0,1,0-64.64A61.75,61.75,0,0,1,49.77,185.45Z"/><polygon class="cls-2" points="309.05 283.45 241.06 164.48 233.91 164.48 233.91 316.87 242.64 316.87 242.64 184.69 306.47 295.95 311.62 295.95 375.45 184.3 375.45 316.87 384.18 316.87 384.18 164.48 377.03 164.48 309.05 283.45"/><path class="cls-2" d="M841.92,246.41c6.63-8.33,10-18.79,10-31.09,0-16-5.46-28.6-16.23-37.54s-25.49-13.3-44.12-13.3H739.24V316.87H748v-50.7h43.59a95.64,95.64,0,0,0,16.34-1.26l37.44,52h10.84L817,262.67C827.53,259.44,835.89,254,841.92,246.41Zm1.26-31.09c0,13.46-4.38,24-13,31.23s-21.61,11.1-38.16,11.1H748V173h44c16.55,0,29.39,3.73,38.16,11.09S843.18,201.86,843.18,215.32Z"/><polygon class="cls-2" points="962.61 308.35 962.61 243.77 1044.16 243.77 1044.16 235.25 962.61 235.25 962.61 173 1053.66 173 1053.66 164.48 953.88 164.48 953.88 316.87 1056.83 316.87 1056.83 308.35 962.61 308.35"/><path class="cls-2" d="M601.48,173.85a84,84,0,0,0-79.53,0,74.12,74.12,0,0,0-28.1,27.55,80.49,80.49,0,0,0,0,78.54A74.08,74.08,0,0,0,522,307.5a84.06,84.06,0,0,0,79.53,0,74,74,0,0,0,28.09-27.56,80.42,80.42,0,0,0,0-78.54A74.1,74.1,0,0,0,601.48,173.85Zm29.6,66.82a68.38,68.38,0,0,1-9.1,34.89,65.59,65.59,0,0,1-24.93,24.52,74.61,74.61,0,0,1-70.68,0,65.59,65.59,0,0,1-24.93-24.52,71.48,71.48,0,0,1,0-69.77,65.59,65.59,0,0,1,24.93-24.52,74.61,74.61,0,0,1,70.68,0A65.59,65.59,0,0,1,622,205.79,68.34,68.34,0,0,1,631.08,240.67Z"/><path class="cls-1" d="M1448.25,197.21a19.52,19.52,0,0,1-2.85,10.43,20.91,20.91,0,0,1-7.69,7.36,21.6,21.6,0,0,1-10.76,2.73h-37V138.54h36.91a16,16,0,0,1,9.65,3,19.37,19.37,0,0,1,6.24,7.58,22.3,22.3,0,0,1,2.18,9.65,21.1,21.1,0,0,1-3,11,17.82,17.82,0,0,1-8.36,7.42,19.72,19.72,0,0,1,10.76,7.53A21,21,0,0,1,1448.25,197.21Zm-52.65-53.54v31.68h29a13.08,13.08,0,0,0,7.64-2.29,16.66,16.66,0,0,0,7.09-13.55,17.46,17.46,0,0,0-1.79-7.92,14.87,14.87,0,0,0-5-5.74,12.65,12.65,0,0,0-7.31-2.18Zm47,52.76a16.64,16.64,0,0,0-2-7.92,16.83,16.83,0,0,0-5.3-6,12.85,12.85,0,0,0-7.58-2.35H1395.6V212.6H1427a14.3,14.3,0,0,0,7.91-2.29,16.55,16.55,0,0,0,5.64-6A16.08,16.08,0,0,0,1442.56,196.43Z"/><path class="cls-1" d="M1427,218.86h-38.16V137.41h38a17.19,17.19,0,0,1,10.31,3.17,20.63,20.63,0,0,1,6.6,8,23.6,23.6,0,0,1,2.29,10.13,22.42,22.42,0,0,1-3.17,11.56,19,19,0,0,1-6.52,6.65,20.47,20.47,0,0,1,8.86,7.06,22.18,22.18,0,0,1,4.17,13.21,20.7,20.7,0,0,1-3,11,22.16,22.16,0,0,1-8.1,7.75A22.7,22.7,0,0,1,1427,218.86ZM1391,216.6H1427a20.53,20.53,0,0,0,10.2-2.58,19.91,19.91,0,0,0,7.29-7,18.51,18.51,0,0,0,2.68-9.84,19.93,19.93,0,0,0-3.75-11.89,18.61,18.61,0,0,0-10.16-7.11l-3-.87,2.83-1.24a16.75,16.75,0,0,0,7.85-7,20.09,20.09,0,0,0,2.86-10.41,21.33,21.33,0,0,0-2.08-9.17,18.29,18.29,0,0,0-5.88-7.15,15,15,0,0,0-9-2.74H1391Zm35.91-2.87h-32.47V179h33.25a14,14,0,0,1,8.22,2.54,18.13,18.13,0,0,1,7.73,14.87,17.26,17.26,0,0,1-2.2,8.41,17.72,17.72,0,0,1-6,6.42A15.5,15.5,0,0,1,1427,213.73Zm-30.22-2.26H1427a13.35,13.35,0,0,0,7.31-2.11,15.53,15.53,0,0,0,5.25-5.61,15,15,0,0,0,1.92-7.32,15.55,15.55,0,0,0-1.82-7.39,15.73,15.73,0,0,0-4.95-5.63,11.85,11.85,0,0,0-6.93-2.14h-31Zm27.87-35h-30.12V142.55h30.79a13.76,13.76,0,0,1,7.94,2.37,16.05,16.05,0,0,1,5.34,6.16,18.8,18.8,0,0,1,1.9,8.43,17.76,17.76,0,0,1-7.57,14.48A14.2,14.2,0,0,1,1424.6,176.47Zm-27.87-2.25h27.87a12,12,0,0,0,7-2.09,15.51,15.51,0,0,0,6.6-12.62,16.44,16.44,0,0,0-1.67-7.42,13.85,13.85,0,0,0-4.59-5.31,11.57,11.57,0,0,0-6.67-2h-28.54Z"/><path class="cls-1" d="M1486.72,218.85a27,27,0,0,1-11.37-2.4,27.9,27.9,0,0,1-9.09-6.55,30.9,30.9,0,0,1-6-9.67,31.47,31.47,0,0,1-2.17-11.61,30.32,30.32,0,0,1,3.68-14.89A29.08,29.08,0,0,1,1471.89,163a26.69,26.69,0,0,1,14.5-4.06,26.33,26.33,0,0,1,14.61,4.12,30.23,30.23,0,0,1,13.83,25.56V190a4.82,4.82,0,0,1-.11,1.11h-50.86a25.79,25.79,0,0,0,3.68,11.88,24.25,24.25,0,0,0,8.31,8.38,21.07,21.07,0,0,0,11.1,3,22.2,22.2,0,0,0,11.37-3.12,17.26,17.26,0,0,0,7.48-8l4.9,1.34a19.81,19.81,0,0,1-5.29,7.36,26.73,26.73,0,0,1-8.48,5.07A28.51,28.51,0,0,1,1486.72,218.85Zm-23.08-32.13h45.84a26.44,26.44,0,0,0-3.57-12,23.36,23.36,0,0,0-8.2-8.21,21.64,21.64,0,0,0-11.21-3,21.3,21.3,0,0,0-11.15,3,23.47,23.47,0,0,0-8.15,8.21A26.43,26.43,0,0,0,1463.64,186.72Z"/><path class="cls-1" d="M1486.72,220a28.39,28.39,0,0,1-11.84-2.49,29.34,29.34,0,0,1-9.45-6.81,32.57,32.57,0,0,1-8.5-22,31.6,31.6,0,0,1,3.82-15.43,30.29,30.29,0,0,1,10.54-11.14,28,28,0,0,1,15.1-4.23,27.55,27.55,0,0,1,15.22,4.3A31.37,31.37,0,0,1,1516,188.63V190a5.55,5.55,0,0,1-.15,1.38l-.21.86h-50.51a24.74,24.74,0,0,0,3.41,10.17,23.24,23.24,0,0,0,7.93,8,20.93,20.93,0,0,0,21.32-.07,16.18,16.18,0,0,0,7-7.51l.39-.89,7.07,1.93-.47,1.17a21.08,21.08,0,0,1-5.59,7.78,28.4,28.4,0,0,1-8.83,5.29A29.73,29.73,0,0,1,1486.72,220Zm-.33-59.89a25.72,25.72,0,0,0-13.9,3.88,28,28,0,0,0-9.76,10.32,29.28,29.28,0,0,0-3.54,14.34,30.36,30.36,0,0,0,2.09,11.2,29.93,29.93,0,0,0,5.81,9.32,27.12,27.12,0,0,0,8.72,6.29,26.14,26.14,0,0,0,10.91,2.29,27.6,27.6,0,0,0,9.81-1.77,26,26,0,0,0,8.13-4.86,19.24,19.24,0,0,0,4.47-5.78l-2.72-.74a18.75,18.75,0,0,1-7.52,7.67,23.48,23.48,0,0,1-11.94,3.27,22.34,22.34,0,0,1-11.68-3.21,25.57,25.57,0,0,1-8.69-8.76,27,27,0,0,1-3.84-12.39l-.09-1.2h51v-1.32a28.87,28.87,0,0,0-3.59-14.18,29.18,29.18,0,0,0-9.72-10.44A25.34,25.34,0,0,0,1486.39,160.08Zm24.29,27.77h-48.25l.08-1.2a27.6,27.6,0,0,1,3.73-12.49,24.49,24.49,0,0,1,8.53-8.6,22.49,22.49,0,0,1,11.73-3.16,22.84,22.84,0,0,1,11.78,3.15,24.48,24.48,0,0,1,8.59,8.6,27.61,27.61,0,0,1,3.73,12.5Zm-45.82-2.25h43.39a25.12,25.12,0,0,0-3.31-10.29,22.21,22.21,0,0,0-7.8-7.82,20.67,20.67,0,0,0-10.64-2.84,20.4,20.4,0,0,0-10.58,2.84,22.41,22.41,0,0,0-7.75,7.82A25.17,25.17,0,0,0,1464.86,185.6Z"/><path class="cls-1" d="M1529.44,237.36q1.79.1,3.18.06a4,4,0,0,0,2.06-.51,4.72,4.72,0,0,0,2.07-1.72,31.15,31.15,0,0,0,2.84-5.46q1.79-4.06,5-12l-25.87-57.92h5.9l23,52,21.3-52h5.69L1542.82,236a10.6,10.6,0,0,1-1.83,3.17,8.81,8.81,0,0,1-2.85,2.23,10,10,0,0,1-4,.95c-.67.07-1.38.13-2.12.16a20.77,20.77,0,0,1-2.57,0Z"/><path class="cls-1" d="M1531.23,243.69c-.57,0-1.19,0-1.87-.08l-1-.08v-7.37l1.2.07c1.14.07,2.17.09,3.07.06a3,3,0,0,0,1.48-.32l.27-.13a3.53,3.53,0,0,0,1.52-1.34,29.84,29.84,0,0,0,2.71-5.22c1.21-2.77,2.88-6.74,4.82-11.5L1517,158.72h8.38l22.2,50.26,20.59-50.26h8.13l-32.44,77.74a11.92,11.92,0,0,1-2,3.47,10.08,10.08,0,0,1-3.2,2.51,11.14,11.14,0,0,1-4.47,1.06c-.62.07-1.35.13-2.12.17Zm-.66-2.27q.75,0,1.38,0c.72,0,1.41-.09,2-.16a9,9,0,0,0,3.64-.84,7.79,7.79,0,0,0,2.49-1.94,9.91,9.91,0,0,0,1.64-2.85L1572.92,161h-3.24l-22,53.77L1523.91,161h-3.44l25.36,56.77-.18.45c-2,5-3.77,9.12-5,12a32.43,32.43,0,0,1-3,5.69,5.9,5.9,0,0,1-2.47,2.06,5.35,5.35,0,0,1-2.51.61c-.64,0-1.35,0-2.1,0Z"/><path class="cls-1" d="M1608.07,218.85a27.21,27.21,0,0,1-11.32-2.34,26.76,26.76,0,0,1-9-6.5,31,31,0,0,1-8-20.94,31.57,31.57,0,0,1,2.12-11.62,30.19,30.19,0,0,1,6-9.55,28.12,28.12,0,0,1,9-6.56,26.5,26.5,0,0,1,11.21-2.39,26.13,26.13,0,0,1,11.15,2.39,29.17,29.17,0,0,1,9,6.56,30,30,0,0,1,6,9.55,31.57,31.57,0,0,1,2.12,11.62,30.93,30.93,0,0,1-2.12,11.39,30.37,30.37,0,0,1-6,9.55,27.46,27.46,0,0,1-9,6.5A27,27,0,0,1,1608.07,218.85Zm-22.75-29.78a25.6,25.6,0,0,0,3.06,12.48,24.49,24.49,0,0,0,8.2,8.95,21,21,0,0,0,22.81-.06,24.37,24.37,0,0,0,8.25-9.11,25.93,25.93,0,0,0,3.07-12.49,25.61,25.61,0,0,0-3.07-12.43,24.62,24.62,0,0,0-8.2-9,20.75,20.75,0,0,0-22.81,0,25.17,25.17,0,0,0-8.25,9.11A26,26,0,0,0,1585.32,189.07Z"/><path class="cls-1" d="M1608.07,220a28.58,28.58,0,0,1-11.78-2.43,28,28,0,0,1-9.35-6.77,32.13,32.13,0,0,1-8.33-21.7,32.75,32.75,0,0,1,2.2-12,31.79,31.79,0,0,1,6.19-9.91,29.31,29.31,0,0,1,9.39-6.81,27.61,27.61,0,0,1,11.68-2.5,27.32,27.32,0,0,1,11.63,2.5,30.52,30.52,0,0,1,9.38,6.81,31.26,31.26,0,0,1,6.25,9.91,32.72,32.72,0,0,1,2.2,12,32.12,32.12,0,0,1-2.2,11.8,31.41,31.41,0,0,1-6.19,9.9,28.82,28.82,0,0,1-9.4,6.77A28.33,28.33,0,0,1,1608.07,220Zm0-59.89a25.61,25.61,0,0,0-10.74,2.28,27.43,27.43,0,0,0-8.68,6.3,29.3,29.3,0,0,0-5.74,9.2,30.46,30.46,0,0,0-2,11.21,29.86,29.86,0,0,0,7.73,20.18,26.06,26.06,0,0,0,8.61,6.24,26.37,26.37,0,0,0,10.86,2.23,26,26,0,0,0,10.74-2.23,26.5,26.5,0,0,0,8.67-6.25,29.17,29.17,0,0,0,5.75-9.2,29.93,29.93,0,0,0,2-11,30.63,30.63,0,0,0-2-11.21,29,29,0,0,0-5.8-9.19,28.22,28.22,0,0,0-8.68-6.31A25.24,25.24,0,0,0,1608.07,160.08ZM1608,215a21.65,21.65,0,0,1-12-3.51,25.47,25.47,0,0,1-8.57-9.34,26.79,26.79,0,0,1-3.21-13,27.21,27.21,0,0,1,3.2-13.09,26.25,26.25,0,0,1,8.62-9.51,21.86,21.86,0,0,1,24-.05,25.88,25.88,0,0,1,8.57,9.45,26.88,26.88,0,0,1,3.2,13,27.28,27.28,0,0,1-3.19,13,25.73,25.73,0,0,1-8.63,9.51A21.72,21.72,0,0,1,1608,215Zm.11-49.85a19.21,19.21,0,0,0-10.81,3.25,24,24,0,0,0-7.88,8.7,24.87,24.87,0,0,0-2.94,12,24.55,24.55,0,0,0,2.93,11.94,23.43,23.43,0,0,0,7.82,8.54,19.92,19.92,0,0,0,21.58-.05,23.48,23.48,0,0,0,7.88-8.7,24.94,24.94,0,0,0,2.93-12,24.68,24.68,0,0,0-2.93-11.9,23.67,23.67,0,0,0-7.83-8.64A19.13,19.13,0,0,0,1608.07,165.1Z"/><path class="cls-1" d="M1697.18,217.73h-5.57V185.52q0-11.11-3.18-16.27t-10.1-5.17a21.55,21.55,0,0,0-9.64,2.34,26.1,26.1,0,0,0-8.26,6.38,25,25,0,0,0-5.07,9.15v35.78h-5.58V159.84H1655v13.89a25.56,25.56,0,0,1,6.25-7.72,31.07,31.07,0,0,1,8.7-5.17,26.82,26.82,0,0,1,9.92-1.89,17.38,17.38,0,0,1,8.09,1.72,14.06,14.06,0,0,1,5.36,5,22.32,22.32,0,0,1,3,8,60.06,60.06,0,0,1,.89,10.88Z"/><path class="cls-1" d="M1698.31,218.86h-7.83V185.52c0-7.15-1-12.43-3-15.68s-4.91-4.63-9.14-4.63a20.57,20.57,0,0,0-9.14,2.22,25,25,0,0,0-7.91,6.1,24,24,0,0,0-4.79,8.59v36.74h-7.83V158.72h7.49v11.1a27.34,27.34,0,0,1,4.39-4.68,33,33,0,0,1,9-5.35,28.13,28.13,0,0,1,10.33-2,18.41,18.41,0,0,1,8.61,1.86,15.08,15.08,0,0,1,5.78,5.33,23.54,23.54,0,0,1,3.12,8.4,61.7,61.7,0,0,1,.91,11.09Zm-5.58-2.26h3.33V184.5a59,59,0,0,0-.88-10.68,21.32,21.32,0,0,0-2.79-7.6,13,13,0,0,0-4.93-4.55,16.25,16.25,0,0,0-7.57-1.59,25.87,25.87,0,0,0-9.51,1.81,30.53,30.53,0,0,0-8.39,5,24.44,24.44,0,0,0-6,7.39l-2.12,4V161h-3V216.6h3.32l0-35a26.24,26.24,0,0,1,5.3-9.56,27.27,27.27,0,0,1,8.61-6.66,22.88,22.88,0,0,1,10.14-2.44c5,0,8.73,1.91,11.06,5.7,2.22,3.61,3.34,9.28,3.34,16.86Z"/><path class="cls-1" d="M1710,189a32.25,32.25,0,0,1,3.46-14.89,29.17,29.17,0,0,1,9.48-10.94,23.49,23.49,0,0,1,13.72-4.17,23.15,23.15,0,0,1,13.43,4,30.74,30.74,0,0,1,9.21,9.59V136.31h5.58v74.06a2.85,2.85,0,0,0,.61,2,2.55,2.55,0,0,0,1.73.78v4.58a11.4,11.4,0,0,1-2.68.11,5.5,5.5,0,0,1-3.35-1.89,5.07,5.07,0,0,1-1.33-3.35v-6.47a26.73,26.73,0,0,1-9.6,9.26,24.6,24.6,0,0,1-12.38,3.46,25.21,25.21,0,0,1-11.15-2.5,28.34,28.34,0,0,1-8.87-6.73,31.47,31.47,0,0,1-5.8-9.55A30.47,30.47,0,0,1,1710,189Zm49.3,9.33v-19a21.78,21.78,0,0,0-5-7.71,27.23,27.23,0,0,0-7.81-5.55,19.85,19.85,0,0,0-8.59-2.06,19.57,19.57,0,0,0-9.09,2.11,22.59,22.59,0,0,0-7,5.66,25.7,25.7,0,0,0-4.52,8,28.12,28.12,0,0,0-1.56,9.28,25.22,25.22,0,0,0,1.78,9.38,26,26,0,0,0,5,8,22.81,22.81,0,0,0,7.36,5.44,21.29,21.29,0,0,0,9.09,2,19.1,19.1,0,0,0,6.42-1.22,27.43,27.43,0,0,0,6.47-3.39,22,22,0,0,0,5.13-5A12.19,12.19,0,0,0,1759.31,198.28Z"/><path class="cls-1" d="M1737.89,220a26.38,26.38,0,0,1-11.64-2.61,29.33,29.33,0,0,1-9.22-7,32.84,32.84,0,0,1-6-9.9,31.66,31.66,0,0,1-2.14-11.52,33.63,33.63,0,0,1,3.58-15.4,30.41,30.41,0,0,1,9.85-11.36,24.71,24.71,0,0,1,14.36-4.37,24.35,24.35,0,0,1,14.07,4.22,33.25,33.25,0,0,1,7.44,6.9V135.19H1766v75.18a2,2,0,0,0,.32,1.24,1.48,1.48,0,0,0,1,.42l1,.1v6.59l-1,.13a12.58,12.58,0,0,1-3,.11,6.63,6.63,0,0,1-4.06-2.28,6.14,6.14,0,0,1-1.61-4.08v-2.93a28,28,0,0,1-7.91,6.69A25.72,25.72,0,0,1,1737.89,220Zm-1.22-59.89a22.46,22.46,0,0,0-13.08,4,28.1,28.1,0,0,0-9.12,10.53,31.3,31.3,0,0,0-3.33,14.37,29.66,29.66,0,0,0,2,10.71,30.59,30.59,0,0,0,5.6,9.22,27.25,27.25,0,0,0,8.51,6.45,23.9,23.9,0,0,0,22.48-.92,25.74,25.74,0,0,0,9.2-8.87l2.08-3.39V212.6a3.91,3.91,0,0,0,1.07,2.61,4.32,4.32,0,0,0,2.68,1.52,6.9,6.9,0,0,0,1.36,0v-2.65a3.33,3.33,0,0,1-1.44-.93,3.94,3.94,0,0,1-.9-2.76V137.44h-3.33v39.19l-2.09-3.49a29.94,29.94,0,0,0-8.87-9.24A22.15,22.15,0,0,0,1736.67,160.08ZM1738.9,215a22.7,22.7,0,0,1-9.57-2,24.1,24.1,0,0,1-7.72-5.71,27.24,27.24,0,0,1-5.17-8.34,26.34,26.34,0,0,1-1.87-9.79,29.23,29.23,0,0,1,1.63-9.65,26.89,26.89,0,0,1,4.71-8.4,23.91,23.91,0,0,1,7.37-5.94A20.82,20.82,0,0,1,1747,165a28.49,28.49,0,0,1,8.13,5.77,22.94,22.94,0,0,1,5.27,8.12l.07.4v19.1a13.4,13.4,0,0,1-2.61,6.49,23.21,23.21,0,0,1-5.39,5.25,28.59,28.59,0,0,1-6.74,3.53A20.33,20.33,0,0,1,1738.9,215Zm-1-49.85a18.43,18.43,0,0,0-8.57,2,21.7,21.7,0,0,0-6.68,5.38,24.77,24.77,0,0,0-4.31,7.7,26.93,26.93,0,0,0-1.5,8.91,24.18,24.18,0,0,0,1.7,9,24.8,24.8,0,0,0,4.75,7.65,21.85,21.85,0,0,0,7,5.18,20.32,20.32,0,0,0,8.62,1.84,18,18,0,0,0,6-1.16,26.06,26.06,0,0,0,6.2-3.24,21.12,21.12,0,0,0,4.87-4.74,11.19,11.19,0,0,0,2.18-5.34V179.5a20.78,20.78,0,0,0-4.69-7.13A26.28,26.28,0,0,0,1746,167,19,19,0,0,0,1737.89,165.1Z"/><path class="cls-1" d="M1427.17,341.58c-.37.15-1.11.52-2.23,1.11A21.54,21.54,0,0,1,1415,345a13.5,13.5,0,0,1-5.63-1.18,9.65,9.65,0,0,1-4.18-3.53,10.05,10.05,0,0,1-1.56-5.72v-44h-8.14V286h8.14V266.18h5.57V286h13.5v4.58h-13.5v42.67a6.33,6.33,0,0,0,2.35,4.88,7.8,7.8,0,0,0,4.9,1.63,14.37,14.37,0,0,0,6-1.17,23.58,23.58,0,0,0,3-1.51Z"/><path class="cls-1" d="M1415,346.16a14.75,14.75,0,0,1-6.09-1.28,10.79,10.79,0,0,1-4.66-3.94,11.23,11.23,0,0,1-1.75-6.34V291.73h-8.14v-6.82h8.14V265.05h7.83v19.86h13.5v6.82h-13.5v41.55a5.21,5.21,0,0,0,1.9,4,6.66,6.66,0,0,0,4.22,1.4,13.39,13.39,0,0,0,5.56-1.07,23.19,23.19,0,0,0,2.81-1.39l1.2-.88,2.59,6.88-1,.41c-.36.14-1.06.5-2.12,1.07a23.07,23.07,0,0,1-4.46,1.7A22.24,22.24,0,0,1,1415,346.16Zm-18.39-56.68h8.14V334.6a8.84,8.84,0,0,0,1.38,5.09,8.4,8.4,0,0,0,3.7,3.14c3.29,1.48,7.42,1.27,10.56.39a20.25,20.25,0,0,0,4-1.52c.53-.28,1-.52,1.34-.7l-.85-2.27c-.46.23-1.09.52-2,.92a15.62,15.62,0,0,1-6.49,1.27,9,9,0,0,1-5.59-1.86,7.46,7.46,0,0,1-2.78-5.71V289.48h13.49v-2.32h-13.49V267.31h-3.33v19.85h-8.14Z"/><path class="cls-1" d="M1484.39,343.92h-5.58V311.71q0-10.66-3.68-16a12.17,12.17,0,0,0-10.71-5.39,20,20,0,0,0-9.15,2.33,25.13,25.13,0,0,0-12.71,15.54v35.78H1437V262.5h5.58v37.42a27.81,27.81,0,0,1,9.93-10.78,25,25,0,0,1,13.49-4,18.09,18.09,0,0,1,8.37,1.78A15,15,0,0,1,1480,292a23.48,23.48,0,0,1,3.29,8,48.1,48.1,0,0,1,1.07,10.66Z"/><path class="cls-1" d="M1485.51,345h-7.83V311.71c0-6.85-1.17-12-3.48-15.42s-5.45-4.89-9.78-4.89a18.93,18.93,0,0,0-8.64,2.21,24,24,0,0,0-12.09,14.69V345h-7.83V261.37h7.83v34.56a28.69,28.69,0,0,1,8.2-7.74A26.18,26.18,0,0,1,1466,284a19.34,19.34,0,0,1,8.88,1.9,16.25,16.25,0,0,1,6.11,5.49,24.86,24.86,0,0,1,3.45,8.38,49.18,49.18,0,0,1,1.09,10.91Zm-5.57-2.25h3.32v-32.1a47.77,47.77,0,0,0-1-10.41,22.8,22.8,0,0,0-3.13-7.63,14.05,14.05,0,0,0-5.27-4.73,17.09,17.09,0,0,0-7.85-1.66,23.94,23.94,0,0,0-12.89,3.83,26.84,26.84,0,0,0-9.53,10.35l-2.12,4V263.63h-3.33v79.16h3.33l0-35a26.26,26.26,0,0,1,13.28-16.23,21.15,21.15,0,0,1,9.66-2.46c5.06,0,9,2,11.64,5.88s3.88,9.38,3.88,16.69Z"/><path class="cls-1" d="M1525.87,345a27.18,27.18,0,0,1-11.38-2.39,28,28,0,0,1-9.08-6.55,30.72,30.72,0,0,1-6-9.67,31.27,31.27,0,0,1-2.17-11.61,30.32,30.32,0,0,1,3.68-14.89A29,29,0,0,1,1511,289.19a26.73,26.73,0,0,1,14.49-4.05,26.33,26.33,0,0,1,14.62,4.11,30.18,30.18,0,0,1,10.09,10.84,29.82,29.82,0,0,1,3.74,14.73v1.33a4.88,4.88,0,0,1-.11,1.11H1503a25.79,25.79,0,0,0,3.68,11.88,24.16,24.16,0,0,0,8.31,8.38,21.06,21.06,0,0,0,11.09,3.05,22.24,22.24,0,0,0,11.38-3.12,17.18,17.18,0,0,0,7.47-8l4.91,1.34a19.84,19.84,0,0,1-5.3,7.36,26.86,26.86,0,0,1-8.47,5.07A28.51,28.51,0,0,1,1525.87,345Zm-23.09-32.12h45.84a26.2,26.2,0,0,0-3.57-12,23.25,23.25,0,0,0-8.19-8.21,21.64,21.64,0,0,0-11.21-3,21.36,21.36,0,0,0-11.16,3,23.45,23.45,0,0,0-8.14,8.21A26.44,26.44,0,0,0,1502.78,312.91Z"/><path class="cls-1" d="M1525.87,346.16a28.36,28.36,0,0,1-11.84-2.49,29.22,29.22,0,0,1-9.45-6.82,32,32,0,0,1-6.25-10,32.71,32.71,0,0,1-2.25-12,31.64,31.64,0,0,1,3.82-15.44,30.33,30.33,0,0,1,10.54-11.13,27.9,27.9,0,0,1,15.09-4.23,27.56,27.56,0,0,1,15.23,4.3,31.53,31.53,0,0,1,10.47,11.23,31.09,31.09,0,0,1,3.87,15.28v1.33a5.58,5.58,0,0,1-.14,1.38l-.21.86h-50.51a24.64,24.64,0,0,0,3.41,10.17,23.15,23.15,0,0,0,7.93,8,20.93,20.93,0,0,0,21.32-.07,16.23,16.23,0,0,0,7-7.51l.39-.9,7.07,1.93-.48,1.18a20.86,20.86,0,0,1-5.59,7.78,28,28,0,0,1-8.82,5.28A29.6,29.6,0,0,1,1525.87,346.16Zm-.34-59.9a25.69,25.69,0,0,0-13.89,3.89,28.17,28.17,0,0,0-9.77,10.31,29.34,29.34,0,0,0-3.54,14.35,30.37,30.37,0,0,0,2.1,11.2,29.93,29.93,0,0,0,5.8,9.31,27.15,27.15,0,0,0,8.73,6.3,26.08,26.08,0,0,0,10.91,2.29,27.6,27.6,0,0,0,9.81-1.77,26.15,26.15,0,0,0,8.12-4.86,19.12,19.12,0,0,0,4.48-5.78l-2.72-.75a18.7,18.7,0,0,1-7.52,7.67,23.4,23.4,0,0,1-12,3.28,22.28,22.28,0,0,1-11.68-3.22,25.54,25.54,0,0,1-8.69-8.75,27.27,27.27,0,0,1-3.84-12.39l-.08-1.21h51v-1.31a28.84,28.84,0,0,0-3.59-14.18,29.35,29.35,0,0,0-9.72-10.44A25.35,25.35,0,0,0,1525.53,286.26Zm24.3,27.78h-48.25l.08-1.2a27.67,27.67,0,0,1,3.72-12.5,24.59,24.59,0,0,1,8.54-8.6,22.55,22.55,0,0,1,11.73-3.15,22.89,22.89,0,0,1,11.78,3.15,24.48,24.48,0,0,1,8.59,8.6,27.69,27.69,0,0,1,3.73,12.5ZM1504,311.78h43.39a25.07,25.07,0,0,0-3.31-10.28,22.16,22.16,0,0,0-7.81-7.82,20.66,20.66,0,0,0-10.63-2.84,20.28,20.28,0,0,0-10.58,2.84,22.24,22.24,0,0,0-7.75,7.82A24.88,24.88,0,0,0,1504,311.78Z"/><path class="cls-1" d="M1628.15,344.48a33.14,33.14,0,0,1-15.06-3.41,37.09,37.09,0,0,1-11.71-9.09,42.58,42.58,0,0,1-10.26-27.65,41.66,41.66,0,0,1,10.65-27.95,38.59,38.59,0,0,1,11.82-8.92,33.08,33.08,0,0,1,14.67-3.29,32.61,32.61,0,0,1,15.11,3.46,37.39,37.39,0,0,1,11.65,9.26,43.43,43.43,0,0,1,7.59,12.94,40.83,40.83,0,0,1,2.67,14.5,41.94,41.94,0,0,1-2.78,15.22,41.16,41.16,0,0,1-7.87,12.82,37.66,37.66,0,0,1-11.82,8.87A33.41,33.41,0,0,1,1628.15,344.48Zm-31.34-40.15a37.46,37.46,0,0,0,8.86,24.2,31.65,31.65,0,0,0,9.93,7.8,28.94,28.94,0,0,0,25.48-.11,31.46,31.46,0,0,0,9.93-8,36.54,36.54,0,0,0,6.3-11.21,38.25,38.25,0,0,0-.11-25.71,35.79,35.79,0,0,0-6.52-11.15,32.53,32.53,0,0,0-10-7.81,27.22,27.22,0,0,0-12.43-2.9,27.64,27.64,0,0,0-12.94,3,30.77,30.77,0,0,0-9.87,8,39.16,39.16,0,0,0-6.36,11.21A36.4,36.4,0,0,0,1596.81,304.33Z"/><path class="cls-1" d="M1628.15,345.6a34.38,34.38,0,0,1-15.56-3.52,38.67,38.67,0,0,1-12.07-9.36A43.9,43.9,0,0,1,1590,304.33a42.8,42.8,0,0,1,10.94-28.7,40,40,0,0,1,12.17-9.18,34.31,34.31,0,0,1,15.16-3.41,33.83,33.83,0,0,1,15.62,3.59,38.82,38.82,0,0,1,12,9.53,45.1,45.1,0,0,1,7.79,13.27,42.36,42.36,0,0,1,2.74,14.9,43.08,43.08,0,0,1-2.86,15.62,42.52,42.52,0,0,1-8.08,13.18,39.22,39.22,0,0,1-12.17,9.13A34.68,34.68,0,0,1,1628.15,345.6Zm.11-80.3a32.21,32.21,0,0,0-14.18,3.17,37.76,37.76,0,0,0-11.48,8.67,40.6,40.6,0,0,0-10.36,27.19,41.6,41.6,0,0,0,10,26.92,36.41,36.41,0,0,0,11.36,8.81,33.75,33.75,0,0,0,28.73.16,36.83,36.83,0,0,0,11.48-8.6,40.62,40.62,0,0,0,7.76-41.4,42.62,42.62,0,0,0-7.4-12.6,36.63,36.63,0,0,0-11.3-9A31.73,31.73,0,0,0,1628.26,265.3Zm0,75.06a29,29,0,0,1-13.17-3,32.81,32.81,0,0,1-10.27-8.08,38.46,38.46,0,0,1-9.14-24.93,37.44,37.44,0,0,1,2.36-13.06,40.64,40.64,0,0,1,6.53-11.53,32.11,32.11,0,0,1,10.23-8.31,28.78,28.78,0,0,1,13.46-3.14,28.38,28.38,0,0,1,12.94,3,33.59,33.59,0,0,1,10.33,8.08,36.92,36.92,0,0,1,6.73,11.5,39.32,39.32,0,0,1,.11,26.47,37.79,37.79,0,0,1-6.49,11.55,32.74,32.74,0,0,1-10.28,8.31A28.61,28.61,0,0,1,1628.26,340.36Zm0-69.82a26.56,26.56,0,0,0-12.42,2.89,29.89,29.89,0,0,0-9.52,7.73,38.64,38.64,0,0,0-6.17,10.89,35.38,35.38,0,0,0-2.22,12.28,36.27,36.27,0,0,0,8.6,23.47,30.77,30.77,0,0,0,9.58,7.53,26.71,26.71,0,0,0,12.15,2.78,26.31,26.31,0,0,0,12.3-2.89,30.6,30.6,0,0,0,9.58-7.74,35.63,35.63,0,0,0,6.11-10.87,37,37,0,0,0-.11-24.95,34.5,34.5,0,0,0-6.32-10.8,31.21,31.21,0,0,0-9.64-7.54A26.23,26.23,0,0,0,1628.26,270.54Z"/><path class="cls-1" d="M1706,345a23.83,23.83,0,0,1-12.71-3.62,27.51,27.51,0,0,1-9.26-9.09v11.6h-5.13V262.5h5.58v36.25a36.49,36.49,0,0,1,9.76-9.82,22.67,22.67,0,0,1,13-3.79,23.42,23.42,0,0,1,11.1,2.56,26,26,0,0,1,8.3,6.89,32.12,32.12,0,0,1,5.3,9.66,33.42,33.42,0,0,1,1.84,11,31,31,0,0,1-8,20.84,28,28,0,0,1-8.81,6.55A25.12,25.12,0,0,1,1706,345Zm-1.11-5a21.21,21.21,0,0,0,9.37-2.05,22.62,22.62,0,0,0,7.3-5.61,27.35,27.35,0,0,0,4.8-8,25,25,0,0,0,1.73-9.11,27.63,27.63,0,0,0-2.79-12.27,24.08,24.08,0,0,0-7.81-9.27,19.56,19.56,0,0,0-11.6-3.55,19.06,19.06,0,0,0-9,2.17,25.08,25.08,0,0,0-7.19,5.6,36.17,36.17,0,0,0-5.19,7.55v19.1a13.41,13.41,0,0,0,2.45,6.05,19.27,19.27,0,0,0,5.08,4.89,29.07,29.07,0,0,0,6.46,3.27A18.9,18.9,0,0,0,1704.88,340Z"/><path class="cls-1" d="M1706,346.16a25.13,25.13,0,0,1-13.3-3.79,29.53,29.53,0,0,1-7.55-6.52V345h-7.38V261.37h7.84v34a36.58,36.58,0,0,1,8-7.36,23.86,23.86,0,0,1,13.62-4,24.68,24.68,0,0,1,11.62,2.69,27.23,27.23,0,0,1,8.66,7.18,33.71,33.71,0,0,1,5.49,10,34.92,34.92,0,0,1,1.9,11.37,32.24,32.24,0,0,1-8.32,21.6,29.54,29.54,0,0,1-9.17,6.81A26.28,26.28,0,0,1,1706,346.16Zm-23.1-17.84,2.09,3.41a26.57,26.57,0,0,0,8.88,8.72,22.93,22.93,0,0,0,12.13,3.46,24,24,0,0,0,10.45-2.29,27.1,27.1,0,0,0,8.46-6.29,30,30,0,0,0,7.74-20.08,32.53,32.53,0,0,0-1.78-10.63,31.51,31.51,0,0,0-5.12-9.33,25.13,25.13,0,0,0-8-6.6,22.45,22.45,0,0,0-10.57-2.43,21.72,21.72,0,0,0-12.37,3.61,35.49,35.49,0,0,0-9.45,9.51l-2.06,3V263.63H1680v79.16h2.87Zm22,12.82a20.2,20.2,0,0,1-6.8-1.29,30.47,30.47,0,0,1-6.71-3.4,20.38,20.38,0,0,1-5.37-5.17,14.63,14.63,0,0,1-2.65-6.55V305.21l.13-.24a37.9,37.9,0,0,1,5.34-7.79,26.51,26.51,0,0,1,7.52-5.85,20.26,20.26,0,0,1,9.55-2.3,20.79,20.79,0,0,1,12.25,3.76,25.23,25.23,0,0,1,8.17,9.7,28.79,28.79,0,0,1,2.9,12.76,26.11,26.11,0,0,1-1.8,9.52,28.56,28.56,0,0,1-5,8.32,23.66,23.66,0,0,1-7.66,5.88A22.41,22.41,0,0,1,1704.88,341.14Zm-19.28-35.38v18.82a12.33,12.33,0,0,0,2.24,5.4,18.1,18.1,0,0,0,4.78,4.6,28.27,28.27,0,0,0,6.23,3.15,18,18,0,0,0,6,1.16,20.18,20.18,0,0,0,8.88-1.95,21.61,21.61,0,0,0,6.94-5.32,26.5,26.5,0,0,0,4.6-7.67,24,24,0,0,0,1.65-8.7,26.68,26.68,0,0,0-2.67-11.77,23.2,23.2,0,0,0-7.45-8.85,18.56,18.56,0,0,0-10.95-3.35,18.15,18.15,0,0,0-8.51,2,24.28,24.28,0,0,0-6.87,5.36A35.36,35.36,0,0,0,1685.6,305.76Z"/><path class="cls-1" d="M1763,343.92,1738.79,286h5.91l21.3,52,21.41-52H1793l-24.2,57.89Z"/><path class="cls-1" d="M1769.54,345h-7.3l-25.15-60.13h8.37L1766,335.05l20.66-50.14h8Zm-5.8-2.25h4.3l23.26-55.63h-3.13L1766,341l-22.06-53.82h-3.46Z"/><path class="cls-1" d="M1804,272.76V262.5h5.58v10.26Zm0,71.16v-58h5.58v58Z"/><path class="cls-1" d="M1810.74,345h-7.83V284.79h7.83Zm-5.58-2.25h3.32V287.05h-3.32Zm5.58-68.9h-7.83V261.37h7.83Zm-5.58-2.26h3.32v-8h-3.32Z"/><path class="cls-1" d="M1851.43,345a27.33,27.33,0,0,1-11.32-2.33,27,27,0,0,1-9-6.5,31,31,0,0,1-8-20.95,31.52,31.52,0,0,1,2.12-11.61,30.23,30.23,0,0,1,6-9.55,28.27,28.27,0,0,1,9-6.56,26.47,26.47,0,0,1,11.21-2.39,26.13,26.13,0,0,1,11.15,2.39,29.17,29.17,0,0,1,9,6.56,29.86,29.86,0,0,1,6,9.55,31.52,31.52,0,0,1,2.12,11.61,30.85,30.85,0,0,1-2.12,11.39,30.48,30.48,0,0,1-6,9.56,27.69,27.69,0,0,1-9,6.5A27,27,0,0,1,1851.43,345Zm-22.75-29.78a25.61,25.61,0,0,0,3.06,12.49,24.46,24.46,0,0,0,8.2,8.94,21.06,21.06,0,0,0,22.81-.05,24.37,24.37,0,0,0,8.25-9.11,25.93,25.93,0,0,0,3.07-12.49A25.61,25.61,0,0,0,1871,302.6a24.71,24.71,0,0,0-8.2-9.05,20.75,20.75,0,0,0-22.81.05,25.09,25.09,0,0,0-8.25,9.11A26,26,0,0,0,1828.68,315.25Z"/><path class="cls-1" d="M1851.43,346.16a28.58,28.58,0,0,1-11.78-2.43,28.14,28.14,0,0,1-9.35-6.77,31.84,31.84,0,0,1-6.13-9.9,32.17,32.17,0,0,1-2.2-11.81,32.7,32.7,0,0,1,2.2-12,31.5,31.5,0,0,1,6.19-9.91,29.31,29.31,0,0,1,9.39-6.81,27.61,27.61,0,0,1,11.68-2.5,27.32,27.32,0,0,1,11.63,2.5,30.2,30.2,0,0,1,9.38,6.81,31.26,31.26,0,0,1,6.25,9.91,32.9,32.9,0,0,1,2.19,12,32.37,32.37,0,0,1-2.19,11.81,31.63,31.63,0,0,1-6.19,9.9,28.82,28.82,0,0,1-9.4,6.77A28.37,28.37,0,0,1,1851.43,346.16Zm0-59.9a25.4,25.4,0,0,0-10.74,2.29,27.43,27.43,0,0,0-8.68,6.3,29.3,29.3,0,0,0-5.74,9.2,30.41,30.41,0,0,0-2,11.2,30,30,0,0,0,7.74,20.19,25.89,25.89,0,0,0,8.61,6.23,26.22,26.22,0,0,0,10.86,2.24,25.9,25.9,0,0,0,10.74-2.24,26.32,26.32,0,0,0,8.67-6.24,29.4,29.4,0,0,0,5.75-9.2,30,30,0,0,0,2-11,30.61,30.61,0,0,0-2-11.2,29,29,0,0,0-5.8-9.19,28.15,28.15,0,0,0-8.69-6.31A25,25,0,0,0,1851.43,286.26Zm-.11,54.88a21.67,21.67,0,0,1-12-3.51,25.61,25.61,0,0,1-8.58-9.35,26.84,26.84,0,0,1-3.2-13,27.17,27.17,0,0,1,3.2-13.08,26.25,26.25,0,0,1,8.62-9.51,21.86,21.86,0,0,1,24.05-.05,25.88,25.88,0,0,1,8.57,9.45,26.86,26.86,0,0,1,3.2,13,27.21,27.21,0,0,1-3.19,13,25.7,25.7,0,0,1-8.64,9.52A21.66,21.66,0,0,1,1851.32,341.14Zm.11-49.86a19.21,19.21,0,0,0-10.81,3.26,24.07,24.07,0,0,0-7.89,8.7,25,25,0,0,0-2.93,12,24.62,24.62,0,0,0,2.93,11.95,23.42,23.42,0,0,0,7.82,8.54,19.9,19.9,0,0,0,21.58-.06A23.37,23.37,0,0,0,1870,327a25.08,25.08,0,0,0,2.93-12,24.65,24.65,0,0,0-2.93-11.9,23.67,23.67,0,0,0-7.83-8.64A19.16,19.16,0,0,0,1851.43,291.28Z"/><path class="cls-1" d="M1892.58,319.43V286h5.58v32.61q0,10.8,3.63,16.09t11,5.28a21.45,21.45,0,0,0,9.42-2.17,24.72,24.72,0,0,0,8-6.11,25.87,25.87,0,0,0,5.13-9.18V286h5.57v50.53a2.9,2.9,0,0,0,.62,2,2.61,2.61,0,0,0,1.73.77v4.58c-.74.07-1.32.11-1.73.11a4.6,4.6,0,0,1-1.06-.11,4.73,4.73,0,0,1-3.12-1.62,5.36,5.36,0,0,1-1.34-3.39l-.11-8.68a28.19,28.19,0,0,1-10.43,10.85A27.45,27.45,0,0,1,1911.1,345q-9.15,0-13.83-6.45T1892.58,319.43Z"/><path class="cls-1" d="M1911.1,346.16c-6.46,0-11.42-2.33-14.75-6.92s-4.89-11.14-4.89-19.81V284.91h7.83v33.73c0,6.94,1.15,12.14,3.42,15.45s5.5,4.8,10.06,4.8a20.63,20.63,0,0,0,8.94-2.06,23.65,23.65,0,0,0,7.61-5.85,24.43,24.43,0,0,0,4.85-8.61V284.91H1942v51.65a2,2,0,0,0,.32,1.24,1.46,1.46,0,0,0,1,.42l1,.1v6.62l-1,.1a9.19,9.19,0,0,1-3.17,0,5.73,5.73,0,0,1-3.7-2,6.5,6.5,0,0,1-1.62-4.07l-.06-4.94a29.24,29.24,0,0,1-8.77,8A28.75,28.75,0,0,1,1911.1,346.16Zm-17.39-59v32.27c0,8.18,1.5,14.4,4.47,18.48s7.15,6,12.92,6a26.48,26.48,0,0,0,13.75-3.8,27.09,27.09,0,0,0,10-10.43l2.06-3.74.17,12.95a4.23,4.23,0,0,0,1.05,2.67,3.68,3.68,0,0,0,2.41,1.24,4.76,4.76,0,0,0,1.53.08v-2.63a3.24,3.24,0,0,1-1.43-.93,3.92,3.92,0,0,1-.91-2.76v-49.4h-3.32l-.06,35.73a26.91,26.91,0,0,1-5.35,9.58,26.2,26.2,0,0,1-8.34,6.39,22.82,22.82,0,0,1-9.91,2.28c-5.28,0-9.29-1.94-11.91-5.78s-3.83-9.31-3.83-16.72V287.16Z"/><path class="cls-1" d="M1976.9,345a34.55,34.55,0,0,1-12.83-2.34,28.23,28.23,0,0,1-10.37-7.14l2.57-3.9a32.53,32.53,0,0,0,9.7,6.64,27.44,27.44,0,0,0,10.71,2.06q7.47,0,12.1-3.11a9.86,9.86,0,0,0,4.63-8.65,7.63,7.63,0,0,0-2.18-5.83,15.8,15.8,0,0,0-6.24-3.34q-4.08-1.28-9.88-2.72a80.53,80.53,0,0,1-10-3.23,14,14,0,0,1-6.09-4.33,11.76,11.76,0,0,1-2-7.22,15,15,0,0,1,2.84-9.39,17,17,0,0,1,7.7-5.56,30.26,30.26,0,0,1,10.76-1.83,29.32,29.32,0,0,1,11.88,2.23,18.54,18.54,0,0,1,7.75,5.91l-3,3.57a16.7,16.7,0,0,0-7.25-5.3,27,27,0,0,0-9.81-1.72,25.11,25.11,0,0,0-7.59,1.11,12.13,12.13,0,0,0-5.74,3.61,9.81,9.81,0,0,0-2.18,6.72,7.77,7.77,0,0,0,1.62,5.22,11.19,11.19,0,0,0,4.85,3.05c2.16.78,4.83,1.61,8,2.5a113.49,113.49,0,0,1,11.71,3.45,19.15,19.15,0,0,1,7.59,4.61q2.67,2.82,2.67,7.94a14.77,14.77,0,0,1-6,12.44Q1986.82,345,1976.9,345Z"/><path class="cls-1" d="M1976.9,346.16a35.7,35.7,0,0,1-13.24-2.42,29.51,29.51,0,0,1-10.78-7.42l-.6-.65,3.79-5.77,1,.93a31.38,31.38,0,0,0,9.36,6.42,26.36,26.36,0,0,0,10.27,2c4.72,0,8.58-1,11.47-2.91a8.74,8.74,0,0,0,4.13-7.72,6.51,6.51,0,0,0-1.82-5,15,15,0,0,0-5.81-3.08c-2.69-.84-6-1.75-9.81-2.7a81.6,81.6,0,0,1-10.13-3.27,15.27,15.27,0,0,1-6.56-4.7,12.86,12.86,0,0,1-2.23-7.9,16.14,16.14,0,0,1,3.08-10.07,18.11,18.11,0,0,1,8.19-5.93,31.42,31.42,0,0,1,11.16-1.91,30.44,30.44,0,0,1,12.33,2.33,19.69,19.69,0,0,1,8.21,6.28l.52.71-4.47,5.31-.86-1.1a15.55,15.55,0,0,0-6.77-4.93,25.85,25.85,0,0,0-9.4-1.66,24.51,24.51,0,0,0-7.26,1.06,11.27,11.27,0,0,0-5.22,3.27,8.86,8.86,0,0,0-1.9,6,6.73,6.73,0,0,0,1.34,4.48,10.27,10.27,0,0,0,4.38,2.73c2.1.76,4.78,1.59,8,2.48a115.8,115.8,0,0,1,11.79,3.46,20.45,20.45,0,0,1,8,4.9c2,2.1,3,5,3,8.72a15.91,15.91,0,0,1-6.47,13.34C1989.33,344.55,1983.73,346.16,1976.9,346.16Zm-21.76-10.74a26.93,26.93,0,0,0,9.35,6.22,33.36,33.36,0,0,0,12.41,2.27c6.33,0,11.47-1.46,15.27-4.33a13.59,13.59,0,0,0,5.58-11.54c0-3.09-.8-5.5-2.37-7.17a18.25,18.25,0,0,0-7.15-4.33,115,115,0,0,0-11.6-3.4c-3.26-.91-6-1.76-8.14-2.53a12.49,12.49,0,0,1-5.33-3.39,8.88,8.88,0,0,1-1.88-6,11,11,0,0,1,2.45-7.47,13.41,13.41,0,0,1,6.25-3.94,26.63,26.63,0,0,1,7.93-1.16,28.35,28.35,0,0,1,10.22,1.8,18.15,18.15,0,0,1,6.84,4.61l1.56-1.86a18.14,18.14,0,0,0-6.76-4.85,28.28,28.28,0,0,0-11.42-2.14A29.3,29.3,0,0,0,1968,288a15.92,15.92,0,0,0-7.19,5.18,14,14,0,0,0-2.61,8.71,10.68,10.68,0,0,0,1.77,6.54,13,13,0,0,0,5.61,4,80.79,80.79,0,0,0,9.84,3.18c3.85,1,7.2,1.88,9.92,2.73a17.16,17.16,0,0,1,6.69,3.6,8.76,8.76,0,0,1,2.53,6.65,11,11,0,0,1-5.13,9.59c-3.27,2.19-7.55,3.3-12.73,3.3a28.6,28.6,0,0,1-11.15-2.16,32.69,32.69,0,0,1-9-5.94Z"/><rect class="cls-1" x="1224.17" y="17.77" width="5.13" height="445.8"/></g></g></svg>