<svg xmlns="http://www.w3.org/2000/svg" viewBox="0 0 294.66 153.63"><defs><style>.cls-1{fill:#e8621f;}.cls-2{fill:#fff;}</style></defs><g id="Camada_2" data-name="Camada 2"><g id="Camada_1-2" data-name="Camada 1"><path class="cls-1" d="M172.83,52.34,171,52.27c0-.3,0-.61,0-.91a23.66,23.66,0,1,0-47.32,0c0,.3,0,.61,0,.91l-1.85.07c0-.33,0-.65,0-1a25.52,25.52,0,1,1,51,0C172.85,51.69,172.84,52,172.83,52.34Z"/><path class="cls-1" d="M18.07,93.86V98H.84V75.74H17.66v4.13H6v4.84H16.29v4H6v5.15Z"/><path class="cls-1" d="M30.74,97.66a11.77,11.77,0,0,1-4-1.86l1.75-3.88a11.81,11.81,0,0,0,3.41,1.69,12.84,12.84,0,0,0,3.94.64,6.23,6.23,0,0,0,3.24-.66,2,2,0,0,0,1.05-1.73,1.67,1.67,0,0,0-.62-1.32A4.6,4.6,0,0,0,38,89.7c-.65-.21-1.52-.45-2.62-.7a36,36,0,0,1-4.17-1.21,6.72,6.72,0,0,1-2.78-1.94,5.26,5.26,0,0,1-1.16-3.56,6.19,6.19,0,0,1,1.05-3.51,7,7,0,0,1,3.16-2.5,13,13,0,0,1,5.17-.92,17.13,17.13,0,0,1,4.17.51,12.31,12.31,0,0,1,3.56,1.46l-1.59,3.91a12.4,12.4,0,0,0-6.17-1.75,5.86,5.86,0,0,0-3.2.7,2.13,2.13,0,0,0-1,1.84,1.81,1.81,0,0,0,1.19,1.71,19,19,0,0,0,3.64,1.09A38.13,38.13,0,0,1,41.35,86,6.84,6.84,0,0,1,44.13,88a5.14,5.14,0,0,1,1.16,3.53A6.07,6.07,0,0,1,44.23,95a7.27,7.27,0,0,1-3.2,2.5,13.11,13.11,0,0,1-5.18.92A18.18,18.18,0,0,1,30.74,97.66Z"/><path class="cls-1" d="M70.22,86.52h4.7v9a13.4,13.4,0,0,1-4.19,2.1,16.21,16.21,0,0,1-4.8.73,13,13,0,0,1-6.24-1.48,11,11,0,0,1-4.34-4.1,12,12,0,0,1,0-11.86,10.9,10.9,0,0,1,4.38-4.1A13.18,13.18,0,0,1,66,75.36a13.91,13.91,0,0,1,5.31,1,10.58,10.58,0,0,1,4,2.87L72,82.26a7.63,7.63,0,0,0-5.75-2.51,7.8,7.8,0,0,0-3.79.89,6.34,6.34,0,0,0-2.57,2.51,7.85,7.85,0,0,0,0,7.41,6.4,6.4,0,0,0,2.56,2.52,7.5,7.5,0,0,0,3.73.91,8.42,8.42,0,0,0,4-.95Z"/><path class="cls-1" d="M110.16,75.74V98H107.9V80.19l-8.75,15H98L89.3,80.29V98H87V75.74H89l9.67,16.5,9.57-16.5Z"/><path class="cls-1" d="M137.72,92.05h-12.4l-2.67,6H120.2l10.18-22.26h2.32L142.88,98H140.4Zm-.85-1.91-5.35-12-5.34,12Z"/><path class="cls-1" d="M156.14,77.77h-7.83v-2h18v2h-7.82V98h-2.35Z"/><path class="cls-1" d="M178.2,95.71c-1.61-1.66-2.41-4.06-2.41-7.22V75.74h2.35V88.39q0,3.89,1.75,5.79a7.68,7.68,0,0,0,10.14,0q1.75-1.91,1.75-5.79V75.74h2.29V88.49c0,3.16-.8,5.56-2.4,7.22a10.39,10.39,0,0,1-13.47,0Z"/><path class="cls-1" d="M222.72,98l-5.09-7.16a14.7,14.7,0,0,1-1.78.1h-6V98h-2.35V75.74h8.33a10.09,10.09,0,0,1,6.68,2,6.94,6.94,0,0,1,2.41,5.6,7.2,7.2,0,0,1-1.32,4.4,7.3,7.3,0,0,1-3.76,2.6L225.29,98Zm-1.88-10.53a5.74,5.74,0,0,0,0-8.25,7.75,7.75,0,0,0-5.05-1.45h-5.92V88.94h5.92A7.64,7.64,0,0,0,220.84,87.47Z"/><path class="cls-1" d="M236.87,75.74h2.35V98h-2.35Z"/><path class="cls-1" d="M257.15,77.77h-7.82v-2h18v2h-7.82V98h-2.36Z"/><path class="cls-1" d="M284.91,90.3V98h-2.32V90.3l-8.9-14.56h2.51l7.63,12.5,7.63-12.5h2.36Z"/><polygon class="cls-1" points="138.48 52.1 146.09 52.1 146.09 59.64 148.56 59.64 148.56 52.1 156.17 52.1 156.17 49.63 148.56 49.63 148.56 43.04 146.09 43.04 146.09 49.63 138.48 49.63 138.48 52.1"/><path class="cls-1" d="M196.94,51.55l-1.86-.07c0-.61,0-1.22,0-1.84a47.79,47.79,0,0,0-95.58,0c0,.62,0,1.23,0,1.84l-1.85.07c0-.63,0-1.27,0-1.91a49.65,49.65,0,0,1,99.29,0C197,50.28,197,50.92,196.94,51.55Z"/><path class="cls-2" d="M48.43,144.47a3.62,3.62,0,0,1-.62,2.06A4.41,4.41,0,0,1,46.13,148a5.07,5.07,0,0,1-2.34.54H35.71V132.91h8a3.72,3.72,0,0,1,2.1.58A4,4,0,0,1,47.23,135a4.18,4.18,0,0,1,.47,1.91,3.86,3.86,0,0,1-.66,2.16,3.67,3.67,0,0,1-1.82,1.46A4.36,4.36,0,0,1,47.57,142,3.89,3.89,0,0,1,48.43,144.47ZM37,133.92v6.24h6.32a3.07,3.07,0,0,0,1.67-.45,3.3,3.3,0,0,0,1.13-1.16,2.94,2.94,0,0,0,.42-1.51,3.28,3.28,0,0,0-.39-1.56A3,3,0,0,0,45,134.35a2.91,2.91,0,0,0-1.59-.43Zm10.24,10.4a3,3,0,0,0-.43-1.56,3.36,3.36,0,0,0-1.15-1.19,3,3,0,0,0-1.65-.46H37v6.4h6.84a3.5,3.5,0,0,0,3-1.64A2.93,2.93,0,0,0,47.19,144.32Z"/><path class="cls-2" d="M43.79,148.74H35.46V132.68h8.3a4,4,0,0,1,2.25.63,4.19,4.19,0,0,1,1.44,1.58,4.33,4.33,0,0,1,.5,2,4.12,4.12,0,0,1-.69,2.27,4,4,0,0,1-1.43,1.32,4.42,4.42,0,0,1,1.94,1.39,4.1,4.1,0,0,1,.91,2.6,3.76,3.76,0,0,1-.66,2.17,4.56,4.56,0,0,1-1.77,1.53A5.31,5.31,0,0,1,43.79,148.74ZM36,148.29h7.83a4.8,4.8,0,0,0,2.22-.51,4.09,4.09,0,0,0,1.59-1.37,3.37,3.37,0,0,0,.59-1.94,3.69,3.69,0,0,0-.82-2.34,4.06,4.06,0,0,0-2.22-1.4l-.65-.18.62-.24a3.54,3.54,0,0,0,1.71-1.37,3.64,3.64,0,0,0,.63-2.05,3.86,3.86,0,0,0-.46-1.81,3.61,3.61,0,0,0-1.28-1.41,3.51,3.51,0,0,0-2-.54H36Zm7.83-.56H36.7v-6.85H44a3.25,3.25,0,0,1,1.79.51A3.62,3.62,0,0,1,47,142.65a3.31,3.31,0,0,1,.46,1.67A3.19,3.19,0,0,1,47,146a3.58,3.58,0,0,1-1.32,1.27A3.65,3.65,0,0,1,43.79,147.73Zm-6.59-.45h6.59a3.18,3.18,0,0,0,2.74-1.52,2.81,2.81,0,0,0,.41-1.44,2.88,2.88,0,0,0-.39-1.46,3.37,3.37,0,0,0-1.08-1.11,2.77,2.77,0,0,0-1.51-.42H37.2Zm6.07-6.9H36.7V133.7h6.72a3.22,3.22,0,0,1,1.73.46,3.34,3.34,0,0,1,1.17,1.22,3.46,3.46,0,0,1,.41,1.66,3.22,3.22,0,0,1-.44,1.61,3.59,3.59,0,0,1-1.21,1.24A3.29,3.29,0,0,1,43.27,140.38Zm-6.07-.44h6.07a2.84,2.84,0,0,0,1.53-.41,3,3,0,0,0,1.05-1.09,2.72,2.72,0,0,0,.39-1.4,3,3,0,0,0-.36-1.46,2.75,2.75,0,0,0-1-1.05,2.67,2.67,0,0,0-1.45-.39H37.2Z"/><path class="cls-2" d="M56.82,148.74a6.34,6.34,0,0,1-2.48-.48,6.09,6.09,0,0,1-3.3-3.19,5.79,5.79,0,0,1-.47-2.29,5.59,5.59,0,0,1,.8-2.94,6.09,6.09,0,0,1,2.22-2.11,6.32,6.32,0,0,1,3.16-.8,6.15,6.15,0,0,1,5.39,2.95,5.45,5.45,0,0,1,.81,2.9V143a1.27,1.27,0,0,1,0,.22H51.84a4.72,4.72,0,0,0,.8,2.34,5,5,0,0,0,1.81,1.65,4.92,4.92,0,0,0,2.42.61,5.24,5.24,0,0,0,2.48-.62A3.57,3.57,0,0,0,61,145.66l1.07.26a3.94,3.94,0,0,1-1.15,1.45,6,6,0,0,1-1.85,1A6.65,6.65,0,0,1,56.82,148.74Zm-5-6.34h10A4.83,4.83,0,0,0,61,140a5.07,5.07,0,0,0-1.79-1.62,5.19,5.19,0,0,0-2.45-.59A5,5,0,0,0,52.56,140,4.83,4.83,0,0,0,51.79,142.4Z"/><path class="cls-2" d="M56.82,149a6.85,6.85,0,0,1-2.58-.49,6.46,6.46,0,0,1-2.06-1.35,6,6,0,0,1-1.36-2,5.86,5.86,0,0,1-.5-2.37,5.77,5.77,0,0,1,.84-3,6.24,6.24,0,0,1,2.3-2.2,6.59,6.59,0,0,1,3.29-.83,6.37,6.37,0,0,1,5.6,3.06,5.66,5.66,0,0,1,.85,3V143a1,1,0,0,1,0,.27l-.05.17h-11a4.51,4.51,0,0,0,.75,2,4.92,4.92,0,0,0,1.73,1.57,5,5,0,0,0,4.65,0,3.33,3.33,0,0,0,1.53-1.48l.08-.18,1.54.38-.1.24a4.28,4.28,0,0,1-1.22,1.53,6.39,6.39,0,0,1-1.93,1A7,7,0,0,1,56.82,149Zm-.07-11.81a6,6,0,0,0-3,.77,5.78,5.78,0,0,0-2.13,2,5.37,5.37,0,0,0-.77,2.83,5.56,5.56,0,0,0,.45,2.21,5.84,5.84,0,0,0,1.27,1.83,5.9,5.9,0,0,0,1.9,1.24,6.23,6.23,0,0,0,2.38.45,6.57,6.57,0,0,0,2.14-.34,5.9,5.9,0,0,0,1.77-1,3.87,3.87,0,0,0,1-1.14l-.59-.15a3.9,3.9,0,0,1-1.64,1.51,5.55,5.55,0,0,1-2.61.65,5.19,5.19,0,0,1-2.55-.64,5.28,5.28,0,0,1-1.89-1.72,5,5,0,0,1-.84-2.44l0-.24H62.71v-.26a5.29,5.29,0,0,0-.79-2.8,5.95,5.95,0,0,0-5.17-2.83Zm5.3,5.48H51.52l0-.24a5,5,0,0,1,2.67-4.16,5.62,5.62,0,0,1,5.13,0A5,5,0,0,1,62,142.39Zm-10-.45h9.47a4.59,4.59,0,0,0-.73-2,4.67,4.67,0,0,0-1.7-1.54,4.85,4.85,0,0,0-2.32-.56,4.77,4.77,0,0,0-2.3.56,4.72,4.72,0,0,0-1.69,1.54A4.59,4.59,0,0,0,52.05,142.18Z"/><path class="cls-2" d="M66.14,152.39h.69a1,1,0,0,0,.45-.1,1,1,0,0,0,.45-.34,6.27,6.27,0,0,0,.62-1.08c.26-.53.63-1.32,1.1-2.36L63.8,137.11h1.29l5,10.25,4.65-10.25H76l-6.93,15a2.05,2.05,0,0,1-.4.63,1.93,1.93,0,0,1-.63.44,2.24,2.24,0,0,1-.87.18l-.46,0h-.56Z"/><path class="cls-2" d="M66.53,153.63h-.41l-.23,0v-1.45h.26a5.12,5.12,0,0,0,.67,0,.55.55,0,0,0,.32-.06l.06,0a.84.84,0,0,0,.34-.27,5.69,5.69,0,0,0,.59-1c.26-.54.62-1.33,1.05-2.26l-5.76-11.65h1.83l4.84,9.91,4.49-9.91h1.78l-7.08,15.33a2.15,2.15,0,0,1-.44.68,2.12,2.12,0,0,1-.7.5,2.77,2.77,0,0,1-1,.21l-.46,0Zm-.15-.44h.3l.45,0a2.27,2.27,0,0,0,.8-.16,1.94,1.94,0,0,0,.54-.38,2.23,2.23,0,0,0,.36-.56l6.79-14.72h-.71l-4.8,10.6-5.18-10.6h-.75l5.53,11.19,0,.09c-.44,1-.82,1.79-1.09,2.36a6.26,6.26,0,0,1-.65,1.12,1.29,1.29,0,0,1-.54.41,1.32,1.32,0,0,1-.55.12h-.46Z"/><path class="cls-2" d="M83.28,148.74a6.57,6.57,0,0,1-2.46-.46,5.87,5.87,0,0,1-2-1.29,6,6,0,0,1-1.29-1.88,5.55,5.55,0,0,1-.46-2.24,5.65,5.65,0,0,1,.46-2.29,6,6,0,0,1,1.3-1.89,6.46,6.46,0,0,1,6.85-1.29,6.53,6.53,0,0,1,2,1.29A6,6,0,0,1,89,140.58a5.65,5.65,0,0,1,.46,2.29,5.55,5.55,0,0,1-.46,2.24A5.82,5.82,0,0,1,87.7,147a6.12,6.12,0,0,1-2,1.29A6.55,6.55,0,0,1,83.28,148.74Zm-5-5.87a4.73,4.73,0,0,0,.67,2.46,5.11,5.11,0,0,0,1.79,1.76,5,5,0,0,0,5,0,4.93,4.93,0,0,0,1.8-1.8,4.83,4.83,0,0,0,0-4.91,5.06,5.06,0,0,0-1.78-1.78,4.74,4.74,0,0,0-2.49-.67,4.8,4.8,0,0,0-2.49.68,5.23,5.23,0,0,0-1.8,1.79A4.8,4.8,0,0,0,78.32,142.87Z"/><path class="cls-2" d="M83.28,149a6.71,6.71,0,0,1-2.56-.48,6.08,6.08,0,0,1-2-1.34,6.23,6.23,0,0,1-1.34-1.95,5.74,5.74,0,0,1-.48-2.32,5.87,5.87,0,0,1,.48-2.37,6.25,6.25,0,0,1,1.35-2,6.72,6.72,0,0,1,7.13-1.34,6.73,6.73,0,0,1,2.05,1.34,6.24,6.24,0,0,1,1.36,2,5.92,5.92,0,0,1,.48,2.38,5.74,5.74,0,0,1-.48,2.32,6.25,6.25,0,0,1-1.35,2,6.47,6.47,0,0,1-2,1.33A6.69,6.69,0,0,1,83.28,149Zm0-11.81a6.06,6.06,0,0,0-2.34.45,6,6,0,0,0-1.89,1.24,5.64,5.64,0,0,0-1.25,1.82,5.42,5.42,0,0,0-.45,2.21A5.33,5.33,0,0,0,77.8,145,5.62,5.62,0,0,0,79,146.84a5.48,5.48,0,0,0,1.88,1.23,6.52,6.52,0,0,0,4.71,0,5.72,5.72,0,0,0,1.89-1.23A5.65,5.65,0,0,0,88.77,145a5.33,5.33,0,0,0,.45-2.16,5.42,5.42,0,0,0-.45-2.21,5.52,5.52,0,0,0-1.26-1.81,6.09,6.09,0,0,0-1.9-1.25A5.94,5.94,0,0,0,83.28,137.15Zm0,10.82a5.07,5.07,0,0,1-2.61-.69,5.26,5.26,0,0,1-1.87-1.85,4.81,4.81,0,0,1-.7-2.56,4.88,4.88,0,0,1,.7-2.58,5.29,5.29,0,0,1,1.88-1.88,5,5,0,0,1,2.62-.71,5,5,0,0,1,2.62.7,5.37,5.37,0,0,1,1.87,1.86,5,5,0,0,1,0,5.13,5.37,5.37,0,0,1-1.88,1.88A5.17,5.17,0,0,1,83.26,148Zm0-9.83a4.56,4.56,0,0,0-2.35.64,4.89,4.89,0,0,0-1.72,1.72,4.48,4.48,0,0,0-.64,2.37,4.41,4.41,0,0,0,.64,2.35,4.72,4.72,0,0,0,1.7,1.68,4.75,4.75,0,0,0,4.71,0,4.94,4.94,0,0,0,1.72-1.71,4.62,4.62,0,0,0,.64-2.36,4.49,4.49,0,0,0-.64-2.34,5,5,0,0,0-1.71-1.71A4.5,4.5,0,0,0,83.28,138.14Z"/><path class="cls-2" d="M102.72,148.52H101.5v-6.35a5.84,5.84,0,0,0-.69-3.21,2.47,2.47,0,0,0-2.2-1,5.08,5.08,0,0,0-2.11.46,5.73,5.73,0,0,0-1.8,1.26,4.69,4.69,0,0,0-1.1,1.8v7.06H92.38V137.11h1.14v2.73a5.19,5.19,0,0,1,1.37-1.52,7,7,0,0,1,1.89-1,6.39,6.39,0,0,1,2.17-.37,4,4,0,0,1,1.76.34,3,3,0,0,1,1.17,1,4.2,4.2,0,0,1,.64,1.58,10.63,10.63,0,0,1,.2,2.15Z"/><path class="cls-2" d="M103,148.74h-1.7v-6.57a5.61,5.61,0,0,0-.66-3.09,2.21,2.21,0,0,0-2-.92,4.88,4.88,0,0,0-2,.44,5.61,5.61,0,0,0-1.72,1.2,4.65,4.65,0,0,0-1,1.7v7.24h-1.7V136.88h1.63v2.19a6,6,0,0,1,1-.92,7.39,7.39,0,0,1,2-1.05,6.67,6.67,0,0,1,2.26-.39,4.47,4.47,0,0,1,1.88.36,3.39,3.39,0,0,1,1.26,1.05,4.63,4.63,0,0,1,.68,1.66A11.16,11.16,0,0,1,103,142Zm-1.21-.45h.72V142a10.27,10.27,0,0,0-.19-2.11,3.94,3.94,0,0,0-.61-1.5,2.65,2.65,0,0,0-1.07-.89,3.85,3.85,0,0,0-1.65-.32,6.15,6.15,0,0,0-2.08.36,7.16,7.16,0,0,0-1.83,1,5,5,0,0,0-1.3,1.46l-.46.79v-3.41h-.65v11h.72V141.4a5.18,5.18,0,0,1,1.16-1.89,5.94,5.94,0,0,1,1.88-1.31,5.37,5.37,0,0,1,2.21-.48,2.73,2.73,0,0,1,2.41,1.12,6.07,6.07,0,0,1,.73,3.33Z"/><path class="cls-2" d="M105.52,142.84a5.89,5.89,0,0,1,.75-2.93,6,6,0,0,1,2.07-2.16,5.85,5.85,0,0,1,5.92,0,6.53,6.53,0,0,1,2,1.89v-7.14h1.21v14.6a.53.53,0,0,0,.14.39.55.55,0,0,0,.37.15v.91a3.08,3.08,0,0,1-.58,0,1.24,1.24,0,0,1-.73-.38.94.94,0,0,1-.29-.65v-1.28a5.61,5.61,0,0,1-2.09,1.82,5.77,5.77,0,0,1-2.7.69,6,6,0,0,1-2.44-.5,6.24,6.24,0,0,1-1.93-1.32A6.13,6.13,0,0,1,106,145,5.5,5.5,0,0,1,105.52,142.84Zm10.75,1.84v-3.74a4.37,4.37,0,0,0-1.1-1.52,6,6,0,0,0-1.7-1.1,4.74,4.74,0,0,0-1.87-.4,4.79,4.79,0,0,0-2,.41A4.9,4.9,0,0,0,107.1,141a5,5,0,0,0-.34,1.83,4.5,4.5,0,0,0,.39,1.84,4.89,4.89,0,0,0,1.08,1.58,4.94,4.94,0,0,0,1.6,1.07,5,5,0,0,0,2,.39,4.52,4.52,0,0,0,1.39-.24,6.08,6.08,0,0,0,1.41-.67,4.7,4.7,0,0,0,1.12-1A2.29,2.29,0,0,0,116.27,144.68Z"/><path class="cls-2" d="M111.6,149a6.27,6.27,0,0,1-2.54-.52,6.29,6.29,0,0,1-3.32-3.33,5.7,5.7,0,0,1-.47-2.27,6.08,6.08,0,0,1,.78-3,6.15,6.15,0,0,1,2.15-2.24,6.11,6.11,0,0,1,6.2,0A7,7,0,0,1,116,138.9v-6.66h1.71v14.83a.27.27,0,0,0,.29.32l.22,0v1.3l-.22,0a2.91,2.91,0,0,1-.64,0,1.55,1.55,0,0,1-.89-.45,1.18,1.18,0,0,1-.35-.8v-.58a6,6,0,0,1-1.72,1.32A6.11,6.11,0,0,1,111.6,149Zm-.27-11.81a5.28,5.28,0,0,0-2.85.78,5.83,5.83,0,0,0-2,2.08,5.71,5.71,0,0,0-.73,2.83,5.28,5.28,0,0,0,.44,2.11,5.68,5.68,0,0,0,1.21,1.82,5.91,5.91,0,0,0,1.86,1.27,5.68,5.68,0,0,0,4.9-.18,5.35,5.35,0,0,0,2-1.75l.45-.66v2.06a.72.72,0,0,0,.24.51.94.94,0,0,0,.58.3,2.78,2.78,0,0,0,.3,0v-.53a.67.67,0,0,1-.51-.72V132.69h-.73v7.72l-.45-.68a6.21,6.21,0,0,0-1.94-1.83A5.18,5.18,0,0,0,111.33,137.15Zm.49,10.82a5.52,5.52,0,0,1-2.09-.4,5.23,5.23,0,0,1-1.68-1.13,5.41,5.41,0,0,1-1.13-1.64,4.81,4.81,0,0,1-.41-1.93,5.22,5.22,0,0,1,.36-1.91,5.09,5.09,0,0,1,2.63-2.82,5,5,0,0,1,4.07,0,6.37,6.37,0,0,1,1.78,1.14,4.58,4.58,0,0,1,1.15,1.6v3.85a2.42,2.42,0,0,1-.57,1.27,4.71,4.71,0,0,1-1.17,1,7.06,7.06,0,0,1-1.47.7A5.1,5.1,0,0,1,111.82,148Zm-.22-9.83a4.34,4.34,0,0,0-1.87.39,4.68,4.68,0,0,0-1.46,1.06,4.89,4.89,0,0,0-.94,1.52,4.78,4.78,0,0,0-.33,1.76,4.44,4.44,0,0,0,.37,1.76,4.91,4.91,0,0,0,1,1.51,4.66,4.66,0,0,0,1.53,1,4.81,4.81,0,0,0,1.88.36,4.33,4.33,0,0,0,1.31-.22,6.18,6.18,0,0,0,1.35-.64,4.41,4.41,0,0,0,1.06-.94,2,2,0,0,0,.48-1.05V141a4.09,4.09,0,0,0-1-1.41,6,6,0,0,0-1.64-1A4.54,4.54,0,0,0,111.6,138.14Z"/><path class="cls-2" d="M134.27,148.05l-.49.22a5.11,5.11,0,0,1-.92.32,5.35,5.35,0,0,1-1.24.14,3.32,3.32,0,0,1-1.23-.23,2.07,2.07,0,0,1-.91-.7,1.83,1.83,0,0,1-.34-1.13V138h-1.78v-.9h1.78v-3.91h1.21v3.91h3v.9h-3v8.42a1.22,1.22,0,0,0,.51,1,1.87,1.87,0,0,0,1.07.32,3.54,3.54,0,0,0,1.32-.23c.37-.16.59-.26.65-.3Z"/><path class="cls-2" d="M131.62,149a3.46,3.46,0,0,1-1.33-.25,2.22,2.22,0,0,1-1-.78,2.06,2.06,0,0,1-.38-1.25v-8.44h-1.77v-1.35h1.77V133h1.71v3.91h2.94v1.35H130.6v8.19a1,1,0,0,0,.41.78,1.54,1.54,0,0,0,.92.28,3.12,3.12,0,0,0,1.21-.21,5.25,5.25,0,0,0,.62-.28l.26-.17.56,1.36-.22.08a4.07,4.07,0,0,0-.46.21,5.87,5.87,0,0,1-1,.33A5.27,5.27,0,0,1,131.62,149Zm-4-11.17h1.77v8.89a1.64,1.64,0,0,0,.3,1,1.8,1.8,0,0,0,.81.62,3.94,3.94,0,0,0,2.3.08,4.92,4.92,0,0,0,.88-.31l.29-.13-.19-.45-.42.18a3.67,3.67,0,0,1-1.42.25,2,2,0,0,1-1.22-.37,1.41,1.41,0,0,1-.6-1.12v-8.65h2.94v-.46h-2.94v-3.91h-.73v3.91h-1.77Z"/><path class="cls-2" d="M146.75,148.51h-1.22v-6.35a5.24,5.24,0,0,0-.8-3.16,2.76,2.76,0,0,0-2.34-1.06,4.66,4.66,0,0,0-2,.46,5.26,5.26,0,0,0-1.73,1.25,4.8,4.8,0,0,0-1,1.81v7h-1.21v-16h1.21v7.38a6,6,0,0,1,5.11-2.91,4.24,4.24,0,0,1,1.83.35,3.27,3.27,0,0,1,1.24,1,4.49,4.49,0,0,1,.71,1.58,8.31,8.31,0,0,1,.24,2.1Z"/><path class="cls-2" d="M147,148.73h-1.71v-6.57a5,5,0,0,0-.76-3,2.47,2.47,0,0,0-2.13-1,4.63,4.63,0,0,0-1.88.43,5.07,5.07,0,0,0-1.65,1.21,4.54,4.54,0,0,0-1,1.69v7.24h-1.71V132.24h1.71v6.81a6,6,0,0,1,1.79-1.52,6.1,6.1,0,0,1,3.07-.83,4.6,4.6,0,0,1,1.94.38,3.42,3.42,0,0,1,1.33,1.08,4.63,4.63,0,0,1,.75,1.65A8.78,8.78,0,0,1,147,142Zm-1.21-.44h.72V142a8.39,8.39,0,0,0-.23-2.05,4,4,0,0,0-.68-1.5,2.93,2.93,0,0,0-1.15-.94,4.14,4.14,0,0,0-1.71-.32,5.72,5.72,0,0,0-4.89,2.79l-.46.8v-8.05h-.73v15.6h.73V141.4a5,5,0,0,1,1.09-1.89,5.76,5.76,0,0,1,1.81-1.31,5,5,0,0,1,2.1-.48,3,3,0,0,1,2.54,1.15,5.45,5.45,0,0,1,.85,3.29Z"/><path class="cls-2" d="M155.79,148.73a6.52,6.52,0,0,1-2.48-.47,6.06,6.06,0,0,1-2-1.29,5.86,5.86,0,0,1-1.31-1.91,5.74,5.74,0,0,1,.32-5.22,6,6,0,0,1,2.22-2.11,6.66,6.66,0,0,1,6.35,0,6.32,6.32,0,0,1,2.2,2.13,5.48,5.48,0,0,1,.81,2.91V143a1.27,1.27,0,0,1,0,.22H150.81a4.72,4.72,0,0,0,.8,2.34,5,5,0,0,0,4.23,2.25,5.23,5.23,0,0,0,2.48-.61,3.54,3.54,0,0,0,1.63-1.59l1.07.27a4,4,0,0,1-1.15,1.45,6.2,6.2,0,0,1-1.85,1A6.9,6.9,0,0,1,155.79,148.73Zm-5-6.33h10A4.9,4.9,0,0,0,160,140a4.81,4.81,0,0,0-1.79-1.62,5,5,0,0,0-2.45-.59,5,5,0,0,0-2.43.59,4.75,4.75,0,0,0-1.77,1.62A4.7,4.7,0,0,0,150.76,142.4Z"/><path class="cls-2" d="M155.79,149a6.66,6.66,0,0,1-2.58-.49,6.27,6.27,0,0,1-2.06-1.34,6.1,6.1,0,0,1-1.36-2,5.86,5.86,0,0,1-.49-2.38,5.78,5.78,0,0,1,.83-3,6.29,6.29,0,0,1,2.3-2.19,6.58,6.58,0,0,1,8.89,2.23,5.66,5.66,0,0,1,.85,3V143a1.06,1.06,0,0,1,0,.27l0,.17h-11a4.46,4.46,0,0,0,.74,2,4.85,4.85,0,0,0,1.73,1.58,5,5,0,0,0,4.65,0,3.43,3.43,0,0,0,1.53-1.48l.08-.18,1.54.38-.1.23a4.2,4.2,0,0,1-1.22,1.53,6.26,6.26,0,0,1-1.92,1.05A7.14,7.14,0,0,1,155.79,149Zm-.07-11.8a6.14,6.14,0,0,0-3,.76,5.8,5.8,0,0,0-2.13,2,5.36,5.36,0,0,0-.77,2.82,5.49,5.49,0,0,0,.45,2.21,6.05,6.05,0,0,0,1.27,1.84,6.12,6.12,0,0,0,1.9,1.24,6.23,6.23,0,0,0,2.38.45,6.58,6.58,0,0,0,2.14-.35,5.69,5.69,0,0,0,1.77-1,3.87,3.87,0,0,0,1-1.14l-.59-.14a3.9,3.9,0,0,1-1.64,1.51,5.54,5.54,0,0,1-2.61.64,5.29,5.29,0,0,1-2.55-.63,5.4,5.4,0,0,1-1.89-1.73,5,5,0,0,1-.84-2.44l0-.23h11.14v-.26a5.29,5.29,0,0,0-.79-2.8,5.89,5.89,0,0,0-5.17-2.83Zm5.3,5.47H150.5v-.23a5,5,0,0,1,2.68-4.16,5.21,5.21,0,0,1,2.55-.63,5.29,5.29,0,0,1,2.57.63,5,5,0,0,1,2.69,4.16Zm-10-.44h9.46a4.62,4.62,0,0,0-.72-2,4.69,4.69,0,0,0-1.71-1.54,4.85,4.85,0,0,0-2.32-.56,4.8,4.8,0,0,0-2.3.56,4.63,4.63,0,0,0-1.69,1.54A4.49,4.49,0,0,0,151,142.18Z"/><path class="cls-2" d="M178.1,148.62a7.87,7.87,0,0,1-3.29-.67,8.08,8.08,0,0,1-4.2-4.33,7.6,7.6,0,0,1-.59-2.91,7.39,7.39,0,0,1,.61-3,8.19,8.19,0,0,1,1.71-2.53,8.38,8.38,0,0,1,2.58-1.76,8.28,8.28,0,0,1,6.5,0A8.22,8.22,0,0,1,184,135.3a8.46,8.46,0,0,1,1.65,2.55,7.4,7.4,0,0,1,.59,2.86,7.66,7.66,0,0,1-.61,3,8.17,8.17,0,0,1-1.72,2.53A8,8,0,0,1,181.3,148,7.92,7.92,0,0,1,178.1,148.62Zm-6.84-7.91a6.66,6.66,0,0,0,.51,2.57,7.25,7.25,0,0,0,1.43,2.2,6.86,6.86,0,0,0,2.16,1.54,6.62,6.62,0,0,0,2.76.57,6.45,6.45,0,0,0,2.8-.6,6.71,6.71,0,0,0,2.16-1.58,7.08,7.08,0,0,0,1.38-2.21,6.92,6.92,0,0,0,.47-2.49,6.87,6.87,0,0,0-1.92-4.77,6.9,6.9,0,0,0-2.18-1.54,6.88,6.88,0,0,0-5.53,0,6.56,6.56,0,0,0-2.15,1.58,7.63,7.63,0,0,0-1.39,2.21A6.6,6.6,0,0,0,171.26,140.71Z"/><path class="cls-2" d="M178.1,148.84a8.2,8.2,0,0,1-3.4-.69,8.5,8.5,0,0,1-2.63-1.85,8.21,8.21,0,0,1-1.69-2.6,7.81,7.81,0,0,1,0-6,8.3,8.3,0,0,1,1.76-2.6,8.67,8.67,0,0,1,2.65-1.81,8.3,8.3,0,0,1,3.31-.67,8,8,0,0,1,3.41.71,8.34,8.34,0,0,1,2.62,1.88,8.55,8.55,0,0,1,1.69,2.61,7.62,7.62,0,0,1,.6,2.94,7.88,7.88,0,0,1-.62,3.08,8.33,8.33,0,0,1-4.42,4.39A8.21,8.21,0,0,1,178.1,148.84Zm0-15.83a7.69,7.69,0,0,0-3.09.63,8.05,8.05,0,0,0-2.5,1.71,7.72,7.72,0,0,0-1.67,2.46,7.37,7.37,0,0,0,0,5.73,7.59,7.59,0,0,0,1.61,2.47,7.92,7.92,0,0,0,8.74,1.77,7.93,7.93,0,0,0,4.17-4.15,7.43,7.43,0,0,0,.59-2.92,7.17,7.17,0,0,0-.57-2.78,8.19,8.19,0,0,0-1.61-2.49,8.1,8.1,0,0,0-2.46-1.77A7.68,7.68,0,0,0,178.12,133Zm0,14.8a7,7,0,0,1-2.87-.59,7.21,7.21,0,0,1-2.24-1.6,7.53,7.53,0,0,1-1.47-2.26,6.9,6.9,0,0,1,0-5.23,7.84,7.84,0,0,1,1.43-2.27,6.94,6.94,0,0,1,2.23-1.64,6.83,6.83,0,0,1,2.93-.62,6.64,6.64,0,0,1,2.82.6,7.39,7.39,0,0,1,2.26,1.59,7.29,7.29,0,0,1,1.46,2.27,7,7,0,0,1,.52,2.65,7.19,7.19,0,0,1-.49,2.57,7.11,7.11,0,0,1-1.42,2.27,7,7,0,0,1-2.24,1.64A6.78,6.78,0,0,1,178.12,147.81Zm0-13.76a6.32,6.32,0,0,0-2.71.57,6.46,6.46,0,0,0-2.07,1.52,7.42,7.42,0,0,0-1.35,2.15,6.37,6.37,0,0,0-.48,2.42,6.62,6.62,0,0,0,.49,2.49,7.16,7.16,0,0,0,1.38,2.13,6.81,6.81,0,0,0,2.09,1.49,6.41,6.41,0,0,0,2.65.55,6.19,6.19,0,0,0,2.68-.57,6.57,6.57,0,0,0,2.09-1.53,7.07,7.07,0,0,0,1.34-2.14,6.79,6.79,0,0,0,.46-2.42,6.72,6.72,0,0,0-4-6.11A6.09,6.09,0,0,0,178.12,134.05Z"/><path class="cls-2" d="M195.07,148.73a5.68,5.68,0,0,1-2.77-.71,5.89,5.89,0,0,1-2-1.79v2.28h-1.12v-16h1.22v7.15a7.7,7.7,0,0,1,2.13-1.94,5.31,5.31,0,0,1,2.83-.74,5.48,5.48,0,0,1,2.42.5,5.57,5.57,0,0,1,1.81,1.36,6.11,6.11,0,0,1,1.16,1.9,6,6,0,0,1,.4,2.17,5.42,5.42,0,0,1-.46,2.22,6.11,6.11,0,0,1-1.29,1.89,6,6,0,0,1-4.31,1.76Zm-.24-1a5,5,0,0,0,2-.4,4.89,4.89,0,0,0,1.6-1.11,5.3,5.3,0,0,0,1-1.57,4.58,4.58,0,0,0,.38-1.8,5,5,0,0,0-.61-2.42,4.79,4.79,0,0,0-1.7-1.82,4.57,4.57,0,0,0-2.53-.71,4.62,4.62,0,0,0-2,.43,5.71,5.71,0,0,0-1.57,1.11,7.06,7.06,0,0,0-1.13,1.49v3.76a2.5,2.5,0,0,0,.53,1.19,4.17,4.17,0,0,0,1.11,1,6.87,6.87,0,0,0,1.41.64A4.58,4.58,0,0,0,194.83,147.74Z"/><path class="cls-2" d="M195.07,149a6,6,0,0,1-2.9-.74,6.25,6.25,0,0,1-1.64-1.29v1.81h-1.61V132.24h1.71v6.7a7.55,7.55,0,0,1,1.74-1.45,5.66,5.66,0,0,1,3-.79,5.66,5.66,0,0,1,4.42,2,6.44,6.44,0,0,1,1.2,2,6.18,6.18,0,0,1,.42,2.24,5.94,5.94,0,0,1-.48,2.31,6.34,6.34,0,0,1-3.34,3.29A6.18,6.18,0,0,1,195.07,149Zm-5-3.51.45.67a5.71,5.71,0,0,0,1.94,1.72,5.38,5.38,0,0,0,2.64.68,5.69,5.69,0,0,0,2.28-.45,6,6,0,0,0,1.85-1.24,5.94,5.94,0,0,0,1.24-1.82,5.43,5.43,0,0,0,.44-2.14,5.86,5.86,0,0,0-1.5-3.93,5.19,5.19,0,0,0-4-1.78,5.16,5.16,0,0,0-2.7.71,7.61,7.61,0,0,0-2.06,1.87l-.45.6v-7.64h-.72v15.6H190Zm4.79,2.52a4.78,4.78,0,0,1-1.48-.25,7.22,7.22,0,0,1-1.47-.67,4.3,4.3,0,0,1-1.17-1,2.76,2.76,0,0,1-.57-1.29v-3.85l0,0a7.77,7.77,0,0,1,1.17-1.53,5.5,5.5,0,0,1,1.64-1.15,4.66,4.66,0,0,1,2.08-.46,4.89,4.89,0,0,1,2.67.74,5.13,5.13,0,0,1,1.78,1.92,5.2,5.2,0,0,1,.64,2.51,4.77,4.77,0,0,1-.4,1.88,5.73,5.73,0,0,1-1.09,1.64,5.06,5.06,0,0,1-1.67,1.16A5.39,5.39,0,0,1,194.83,148Zm-4.2-7v3.71a2.29,2.29,0,0,0,.48,1.06,3.88,3.88,0,0,0,1,.91,6,6,0,0,0,1.36.62,4.26,4.26,0,0,0,1.31.23,4.87,4.87,0,0,0,1.94-.38,4.76,4.76,0,0,0,1.51-1,5.16,5.16,0,0,0,1-1.51,4.35,4.35,0,0,0,.36-1.72,4.81,4.81,0,0,0-.58-2.32,4.66,4.66,0,0,0-1.62-1.74,4.36,4.36,0,0,0-2.39-.66,4.29,4.29,0,0,0-1.86.4,5.33,5.33,0,0,0-1.5,1.05A7.48,7.48,0,0,0,190.63,141Z"/><path class="cls-2" d="M207.5,148.51l-5.27-11.41h1.29l4.64,10.25,4.67-10.25h1.22l-5.28,11.41Z"/><path class="cls-2" d="M208.93,148.73h-1.59l-5.48-11.85h1.82l4.48,9.88,4.51-9.88h1.75Zm-1.26-.44h.93l5.08-11H213l-4.83,10.61-4.81-10.61h-.76Z"/><path class="cls-2" d="M216.45,134.49v-2h1.22v2Zm0,14V137.08h1.22v11.43Z"/><path class="cls-2" d="M217.92,148.73h-1.71V136.86h1.71Zm-1.22-.44h.72v-11h-.72Zm1.22-13.58h-1.71v-2.47h1.71Zm-1.22-.45h.72v-1.57h-.72Z"/><path class="cls-2" d="M226.79,148.73a6.46,6.46,0,0,1-2.47-.46,5.79,5.79,0,0,1-2-1.28,6.06,6.06,0,0,1-1.29-1.88,5.73,5.73,0,0,1-.46-2.25,5.82,5.82,0,0,1,.46-2.29,6.11,6.11,0,0,1,3.28-3.17,6.14,6.14,0,0,1,2.44-.47,6.05,6.05,0,0,1,2.43.47,6.23,6.23,0,0,1,2,1.29,5.64,5.64,0,0,1,1.78,4.17,5.73,5.73,0,0,1-.46,2.25A6,6,0,0,1,231.2,147a5.74,5.74,0,0,1-2,1.28A6.31,6.31,0,0,1,226.79,148.73Zm-5-5.87a4.59,4.59,0,0,0,.67,2.46,5,5,0,0,0,1.78,1.77,5.06,5.06,0,0,0,5,0,5.17,5.17,0,0,0,1.8-1.8,4.78,4.78,0,0,0,.67-2.46,4.72,4.72,0,0,0-.67-2.45,5.11,5.11,0,0,0-1.79-1.79,4.8,4.8,0,0,0-2.48-.67,4.75,4.75,0,0,0-2.49.68,5.09,5.09,0,0,0-1.8,1.8A4.67,4.67,0,0,0,221.83,142.86Z"/><path class="cls-2" d="M226.79,149a6.76,6.76,0,0,1-2.57-.48,6,6,0,0,1-2-1.33,6.15,6.15,0,0,1-1.33-1.95,5.79,5.79,0,0,1-.48-2.33,5.87,5.87,0,0,1,.48-2.37,5.94,5.94,0,0,1,1.35-2,6.18,6.18,0,0,1,2-1.34,6.55,6.55,0,0,1,2.55-.5,6.47,6.47,0,0,1,2.54.5,6.4,6.4,0,0,1,2,1.34,6,6,0,0,1,1.36,6.65,6.13,6.13,0,0,1-3.4,3.28A6.64,6.64,0,0,1,226.79,149Zm0-11.8a6,6,0,0,0-4.23,1.69,5.91,5.91,0,0,0-1.26,1.81,5.62,5.62,0,0,0-.44,2.21,5.5,5.5,0,0,0,.44,2.17,5.81,5.81,0,0,0,1.25,1.81,5.58,5.58,0,0,0,1.87,1.23,6.33,6.33,0,0,0,2.37.44,6.21,6.21,0,0,0,2.34-.44,5.77,5.77,0,0,0,1.89-1.23,5.91,5.91,0,0,0,1.26-1.81,5.5,5.5,0,0,0,.44-2.17,5.41,5.41,0,0,0-1.71-4,6.2,6.2,0,0,0-1.89-1.24A6,6,0,0,0,226.79,137.15Zm0,10.81a5.19,5.19,0,0,1-4.49-2.53,4.93,4.93,0,0,1-.7-2.57,5,5,0,0,1,.7-2.58,5.43,5.43,0,0,1,1.88-1.87,5.18,5.18,0,0,1,5.25,0,5.46,5.46,0,0,1,1.87,1.86,5.09,5.09,0,0,1,0,5.12,5.24,5.24,0,0,1-1.89,1.88A5,5,0,0,1,226.77,148Zm0-9.82a4.5,4.5,0,0,0-2.36.64,5.12,5.12,0,0,0-1.72,1.71,4.6,4.6,0,0,0-.64,2.37,4.51,4.51,0,0,0,.64,2.36,4.91,4.91,0,0,0,1.71,1.68,4.73,4.73,0,0,0,4.7,0,4.73,4.73,0,0,0,1.72-1.72,4.63,4.63,0,0,0,0-4.7,4.86,4.86,0,0,0-1.7-1.7A4.55,4.55,0,0,0,226.79,138.14Z"/><path class="cls-2" d="M235.77,143.68V137.1H237v6.43a5.19,5.19,0,0,0,.79,3.17,2.81,2.81,0,0,0,2.4,1,5.15,5.15,0,0,0,2.05-.42,5.4,5.4,0,0,0,1.74-1.21,4.92,4.92,0,0,0,1.12-1.81v-7.2h1.22v10a.54.54,0,0,0,.13.4.63.63,0,0,0,.38.15v.9a2.91,2.91,0,0,1-.38,0,.79.79,0,0,1-.23,0,1,1,0,0,1-.68-.32,1,1,0,0,1-.29-.67l0-1.71a5.85,5.85,0,0,1-2.27,2.14,6.51,6.51,0,0,1-3.13.78,3.62,3.62,0,0,1-3-1.27A6,6,0,0,1,235.77,143.68Z"/><path class="cls-2" d="M239.8,149a3.87,3.87,0,0,1-3.21-1.36,6.16,6.16,0,0,1-1.07-3.91v-6.8h1.71v6.65a5.08,5.08,0,0,0,.74,3,2.56,2.56,0,0,0,2.2,1,4.91,4.91,0,0,0,2-.41,5.11,5.11,0,0,0,1.66-1.15,4.75,4.75,0,0,0,1.06-1.7v-7.38h1.7v10.18a.37.37,0,0,0,.07.25.41.41,0,0,0,.22.08l.22,0v1.3l-.22,0a2.16,2.16,0,0,1-.69,0,1.32,1.32,0,0,1-.81-.39,1.25,1.25,0,0,1-.35-.8v-1a6,6,0,0,1-1.92,1.58A6.72,6.72,0,0,1,239.8,149ZM236,137.32v6.36a5.76,5.76,0,0,0,1,3.65,3.35,3.35,0,0,0,2.81,1.18,6.21,6.21,0,0,0,3-.75,5.69,5.69,0,0,0,2.19-2l.45-.74,0,2.55a.8.8,0,0,0,.23.53.82.82,0,0,0,.53.24.89.89,0,0,0,.33,0v-.52a.79.79,0,0,1-.31-.18.74.74,0,0,1-.2-.55v-9.74h-.72v7.05a5.45,5.45,0,0,1-1.17,1.89,6,6,0,0,1-1.82,1.26,5.56,5.56,0,0,1-2.16.44,3.08,3.08,0,0,1-2.6-1.13,5.48,5.48,0,0,1-.83-3.3v-6.21Z"/><path class="cls-2" d="M254.15,148.73a8.17,8.17,0,0,1-2.79-.46,6.29,6.29,0,0,1-2.27-1.41l.56-.77a7.07,7.07,0,0,0,2.12,1.31,6.52,6.52,0,0,0,2.33.41,5.11,5.11,0,0,0,2.64-.61,1.9,1.9,0,0,0,1-1.71,1.41,1.41,0,0,0-.47-1.15,3.67,3.67,0,0,0-1.36-.66c-.6-.17-1.31-.34-2.16-.53a19.72,19.72,0,0,1-2.17-.64,3,3,0,0,1-1.33-.85,2.18,2.18,0,0,1-.44-1.43,2.79,2.79,0,0,1,.62-1.85,3.75,3.75,0,0,1,1.68-1.09,7.29,7.29,0,0,1,2.35-.36,6.86,6.86,0,0,1,2.59.44,4,4,0,0,1,1.69,1.16l-.66.7a3.68,3.68,0,0,0-1.58-1,6.36,6.36,0,0,0-2.14-.34,5.93,5.93,0,0,0-1.65.22,2.61,2.61,0,0,0-1.25.71,1.82,1.82,0,0,0-.48,1.32,1.44,1.44,0,0,0,.35,1,2.6,2.6,0,0,0,1.06.61c.47.15,1.06.31,1.75.49a26.26,26.26,0,0,1,2.56.68,4.17,4.17,0,0,1,1.65.91,2,2,0,0,1,.58,1.56,2.79,2.79,0,0,1-1.31,2.45A6,6,0,0,1,254.15,148.73Z"/><path class="cls-2" d="M254.15,149a8.65,8.65,0,0,1-2.88-.47,6.52,6.52,0,0,1-2.36-1.47l-.13-.12.83-1.14.21.18a6.9,6.9,0,0,0,2.05,1.27,6.22,6.22,0,0,0,2.23.39,4.83,4.83,0,0,0,2.51-.58,1.69,1.69,0,0,0,.9-1.52,1.21,1.21,0,0,0-.4-1,3.49,3.49,0,0,0-1.27-.61c-.58-.16-1.3-.34-2.14-.53a19.17,19.17,0,0,1-2.21-.64,3.32,3.32,0,0,1-1.42-.93,2.33,2.33,0,0,1-.49-1.56,2.93,2.93,0,0,1,.67-2,3.94,3.94,0,0,1,1.78-1.17,7.61,7.61,0,0,1,2.44-.38,7.39,7.39,0,0,1,2.69.46A4.33,4.33,0,0,1,259,138.4l.11.14-1,1.05-.19-.22a3.42,3.42,0,0,0-1.48-1,6,6,0,0,0-2.05-.33,5.75,5.75,0,0,0-1.58.21,2.46,2.46,0,0,0-1.14.65,1.63,1.63,0,0,0-.41,1.17,1.27,1.27,0,0,0,.29.89,2.29,2.29,0,0,0,1,.54c.45.15,1,.31,1.73.48,1,.22,1.85.45,2.57.69a4.52,4.52,0,0,1,1.75,1,2.31,2.31,0,0,1,.65,1.72,3,3,0,0,1-1.41,2.63A6.33,6.33,0,0,1,254.15,149Zm-4.74-2.11a5.87,5.87,0,0,0,2,1.22,7.85,7.85,0,0,0,2.7.45,5.89,5.89,0,0,0,3.33-.85,2.6,2.6,0,0,0,1.22-2.28,1.84,1.84,0,0,0-.52-1.41,4,4,0,0,0-1.56-.85c-.7-.23-1.55-.46-2.53-.68-.71-.17-1.3-.34-1.77-.49a2.84,2.84,0,0,1-1.16-.67,1.62,1.62,0,0,1-.41-1.18,2.07,2.07,0,0,1,.53-1.47,3,3,0,0,1,1.36-.77,6.08,6.08,0,0,1,1.73-.23,6.86,6.86,0,0,1,2.23.35,3.94,3.94,0,0,1,1.49.91l.34-.37a4,4,0,0,0-1.47-1,6.73,6.73,0,0,0-2.49-.42,7,7,0,0,0-2.26.34,3.46,3.46,0,0,0-1.57,1,2.54,2.54,0,0,0-.57,1.71,2,2,0,0,0,.39,1.29,2.84,2.84,0,0,0,1.22.79,19.64,19.64,0,0,0,2.15.62c.84.19,1.57.37,2.16.54a3.9,3.9,0,0,1,1.46.71,1.65,1.65,0,0,1,.55,1.31,2.13,2.13,0,0,1-1.12,1.89,5.34,5.34,0,0,1-2.78.65,6.89,6.89,0,0,1-2.43-.42,7.68,7.68,0,0,1-2-1.17Z"/><rect class="cls-2" y="117.54" width="294.66" height="1.58"/></g></g></svg>