<svg width="32" height="32" viewBox="0 0 32 32" fill="none" xmlns="http://www.w3.org/2000/svg">
<path d="M15.9996 26.2223C21.6451 26.2223 26.2218 21.6456 26.2218 16.0001C26.2218 10.3545 21.6451 5.77783 15.9996 5.77783C10.354 5.77783 5.77734 10.3545 5.77734 16.0001C5.77734 21.6456 10.354 26.2223 15.9996 26.2223Z" stroke="#19A0FD" stroke-miterlimit="10"/>
<path d="M12 19.1111H20" stroke="#19A0FD" stroke-miterlimit="10" stroke-linecap="round" stroke-linejoin="round"/>
<path d="M13.3327 13.7779C13.3327 14.5143 12.735 15.1112 11.9993 15.1112C11.2637 15.1112 10.666 14.5142 10.666 13.7779C10.666 13.0423 11.2637 12.4446 11.9993 12.4446C12.735 12.4446 13.3327 13.0423 13.3327 13.7779Z" fill="#19A0FD"/>
<path d="M21.3327 13.7779C21.3327 14.5143 20.735 15.1112 19.9993 15.1112C19.2637 15.1112 18.666 14.5142 18.666 13.7779C18.666 13.0423 19.2637 12.4446 19.9993 12.4446C20.735 12.4446 21.3327 13.0423 21.3327 13.7779Z" fill="#19A0FD"/>
</svg>
