<svg width="32" height="32" viewBox="0 0 32 32" fill="none" xmlns="http://www.w3.org/2000/svg">
<path d="M15.9996 26.2223C21.6451 26.2223 26.2218 21.6456 26.2218 16.0001C26.2218 10.3545 21.6451 5.77783 15.9996 5.77783C10.354 5.77783 5.77734 10.3545 5.77734 16.0001C5.77734 21.6456 10.354 26.2223 15.9996 26.2223Z" stroke="#99CA3C" stroke-miterlimit="10" stroke-linecap="round" stroke-linejoin="round"/>
<path d="M21.5928 18.9661C21.5928 21.4682 19.7358 23.457 16.0132 23.457C12.2915 23.457 10.4102 21.462 10.4102 18.9661C10.4102 18.9661 16.1992 20.3132 21.5928 18.9661Z" stroke="#99CA3C" stroke-miterlimit="10" stroke-linecap="round" stroke-linejoin="round"/>
<path d="M11.7768 12.1949C11.2145 10.7042 8.91415 10.6088 9.05824 12.7806C9.07739 13.0688 9.18313 13.3461 9.34331 13.5866L11.7068 16.441L14.0274 13.6561C14.285 13.3466 14.4373 12.9548 14.4296 12.5515C14.3912 10.6172 12.1847 10.7581 11.7063 12.1944" stroke="#99CA3C" stroke-miterlimit="10" stroke-linecap="round" stroke-linejoin="round"/>
<path d="M20.3557 12.1949C19.798 10.7042 17.5169 10.6088 17.6597 12.7806C17.6788 13.0688 17.7836 13.3461 17.9425 13.5866L20.2863 16.441L22.5875 13.6561C22.8429 13.3466 22.9941 12.9548 22.9864 12.5515C22.9483 10.6172 20.7602 10.7581 20.2858 12.1944" stroke="#99CA3C" stroke-miterlimit="10" stroke-linecap="round" stroke-linejoin="round"/>
</svg>
