<svg width="32" height="32" viewBox="0 0 32 32" fill="none" xmlns="http://www.w3.org/2000/svg">
<path d="M15.9996 26.2223C21.6451 26.2223 26.2218 21.6456 26.2218 16.0001C26.2218 10.3545 21.6451 5.77783 15.9996 5.77783C10.354 5.77783 5.77734 10.3545 5.77734 16.0001C5.77734 21.6456 10.354 26.2223 15.9996 26.2223Z" stroke="#F44336" stroke-miterlimit="10"/>
<path d="M12.4443 20.4445C13.1468 19.3078 14.624 18.6067 16.187 18.665C17.6221 18.7185 18.9164 19.4042 19.5554 20.4445" stroke="#F44336" stroke-miterlimit="10" stroke-linecap="round" stroke-linejoin="round"/>
<path d="M13.3327 14.6334C13.3327 15.3697 12.735 15.9667 11.9993 15.9667C11.2637 15.9667 10.666 15.3697 10.666 14.6334C10.666 13.8977 11.2637 13.3 11.9993 13.3C12.735 13.3 13.3327 13.8977 13.3327 14.6334Z" fill="#F44336"/>
<path d="M21.3327 14.6334C21.3327 15.3697 20.735 15.9667 19.9993 15.9667C19.2637 15.9667 18.666 15.3697 18.666 14.6334C18.666 13.8977 19.2637 13.3 19.9993 13.3C20.735 13.3 21.3327 13.8977 21.3327 14.6334Z" fill="#F44336"/>
<path d="M10.2217 10.6667L13.3328 12.4445" stroke="#F44336" stroke-miterlimit="10" stroke-linecap="round" stroke-linejoin="round"/>
<path d="M21.7771 10.6667L18.666 12.4445" stroke="#F44336" stroke-miterlimit="10" stroke-linecap="round" stroke-linejoin="round"/>
</svg>
