<svg width="162" height="140" viewBox="0 0 162 140" fill="none" xmlns="http://www.w3.org/2000/svg">
<path d="M102.997 49.614C102.997 46.6732 101.922 43.981 99.9725 42.0329C98.0228 40.0848 95.3278 39.0087 92.3856 39.0069C85.8998 38.9998 77.3364 38.9927 68.6164 39.0158C67.6611 39.0175 66.777 39.1134 65.9854 39.2999C61.2981 40.4027 58.0179 44.5617 58.009 49.4133C57.9965 54.9717 58.0001 60.6224 58.0019 66.0884C58.0019 68.4609 58.0036 70.8317 58.0036 73.2042V79.8014C58.0036 85.6652 58.0036 91.529 58.0036 97.3946C58.0036 98.4122 58.3576 99.2131 58.9998 99.6464C59.6473 100.083 60.5314 100.115 61.4938 99.7334L64.5018 98.5365C69.5271 96.5387 74.7214 94.4734 79.825 92.4205C80.3178 92.2234 80.7002 92.2216 81.193 92.4205C86.5047 94.5533 91.9106 96.7074 97.1405 98.7887L99.4584 99.7121C99.944 99.9057 100.399 100.003 100.814 100.003C101.266 100.003 101.669 99.8879 102.009 99.6588C102.659 99.2202 103.002 98.4157 103.002 97.3307V87.3896C103.004 74.7989 103.005 62.2064 103.002 49.6157L102.997 49.614ZM81.9045 87.7767C81.4367 87.5849 80.9795 87.489 80.5205 87.489C80.0616 87.489 79.5742 87.5902 79.0779 87.7909C74.9651 89.4566 70.7759 91.1277 66.7254 92.7437C65.4767 93.241 64.2297 93.74 62.9809 94.239C62.8742 94.2816 62.7675 94.3207 62.6483 94.3633V57.7029H90.8291V53.1621H62.5771C62.5771 53.0857 62.5771 53.0111 62.5771 52.9366C62.5753 52.6098 62.5736 52.3008 62.5807 51.9971C62.5913 51.6136 62.5896 51.2246 62.5878 50.8482C62.5842 49.9869 62.5789 49.0972 62.7265 48.2608C63.1908 45.6148 65.466 43.7093 68.2588 43.6294C69.424 43.5957 70.6105 43.6028 71.7596 43.6081C72.2328 43.6099 72.7006 43.6134 73.1774 43.6134H78.0568C82.7423 43.6099 87.588 43.6081 92.3536 43.617C95.3456 43.6223 97.6724 45.423 98.2825 48.204C98.4053 48.7633 98.4213 49.3494 98.4213 49.7969C98.4284 62.5492 98.4284 75.3032 98.4266 88.0555V94.3864L96.8363 93.7542C95.4292 93.1966 94.0631 92.6531 92.6969 92.108C91.8733 91.7794 91.0479 91.4491 90.2225 91.1206C87.4937 90.0338 84.6706 88.9079 81.9063 87.7785L81.9045 87.7767Z" fill="white"/>
</svg>
