<svg width="162" height="140" viewBox="0 0 162 140" fill="none" xmlns="http://www.w3.org/2000/svg">
<path d="M39.9014 100.708C38.7684 102.068 37.169 103.123 35.1011 103.874C33.0331 104.625 30.7407 105 28.2262 105C25.5862 105 23.2675 104.422 21.2787 103.265C19.2877 102.108 17.75 100.428 16.6654 98.2268C15.583 96.0257 15.0264 93.4382 15 90.4667V88.3826C15 85.3249 15.5126 82.6778 16.54 80.4414C17.5674 78.205 19.0479 76.494 20.9839 75.3085C22.9199 74.1229 25.1858 73.5312 27.7862 73.5312C31.4073 73.5312 34.2365 74.3967 36.2758 76.1297C38.3174 77.8606 39.5252 80.3818 39.9036 83.6912H33.7833C33.5017 81.9382 32.8835 80.6556 31.9265 79.8431C30.9695 79.0307 29.6518 78.6222 27.9754 78.6222C25.8392 78.6222 24.209 79.4281 23.0915 81.0419C21.9739 82.6557 21.4085 85.0533 21.3953 88.2369V90.1929C21.3953 93.4051 22.0025 95.8314 23.2191 97.4717C24.4356 99.1121 26.2154 99.9333 28.565 99.9311C30.9255 99.9311 32.6107 99.4256 33.6161 98.4166V93.1358H27.894V88.4885H39.9058V100.708H39.9014Z" fill="white"/>
<path d="M82.5213 93.1578H90.1507L86.314 81.6932L82.5213 93.1578ZM91.8491 98.2687H80.8229L78.7285 104.578H72.0406L83.4013 73.9507H89.229L100.653 104.578H93.9655L91.8469 98.2687H91.8491Z" fill="white"/>
<path d="M108.848 99.516H122.202V104.585H102.561V73.9595H108.848V99.516V99.516Z" fill="white"/>
<path d="M140.688 96.5357C140.688 95.3435 140.268 94.4295 139.43 93.7915C138.592 93.1535 137.083 92.4801 134.902 91.7715C132.722 91.065 130.995 90.3651 129.726 89.6785C126.259 87.7998 124.525 85.2697 124.525 82.0862C124.525 80.4304 124.989 78.9557 125.918 77.6575C126.846 76.3594 128.182 75.3482 129.922 74.6175C131.66 73.8889 133.613 73.5225 135.78 73.5225C137.947 73.5225 139.903 73.9176 141.608 74.7102C143.313 75.5028 144.637 76.6199 145.581 78.0659C146.525 79.512 146.998 81.1501 146.998 82.9892H140.708C140.708 81.5873 140.268 80.4966 139.388 79.7173C138.508 78.9402 137.27 78.5494 135.677 78.5494C134.084 78.5494 132.944 78.8762 132.093 79.5275C131.239 80.1787 130.815 81.0397 130.815 82.1061C130.815 83.1017 131.314 83.9363 132.315 84.6074C133.314 85.2808 134.786 85.9122 136.726 86.5016C140.303 87.5812 142.91 88.9191 144.545 90.5197C146.179 92.1181 146.998 94.1094 146.998 96.4938C146.998 99.143 145.999 101.223 144.001 102.731C142.002 104.238 139.311 104.993 135.93 104.993C133.582 104.993 131.444 104.561 129.515 103.7C127.585 102.837 126.116 101.655 125.102 100.154C124.087 98.6529 123.581 96.9132 123.581 94.9373H129.891C129.891 98.3173 131.902 100.006 135.928 100.006C137.421 100.006 138.59 99.6994 139.428 99.09C140.266 98.4807 140.686 97.6285 140.686 96.5335" fill="white"/>
<path d="M51.1365 85.1879C51.5171 84.5366 51.9813 83.9405 52.5115 83.4129L48.0016 78.4521C46.8686 79.5383 45.9006 80.8012 45.1394 82.1898L51.1365 85.1879V85.1879Z" fill="#56C02B"/>
<path d="M62.1892 81.7001C62.8712 82.0136 63.507 82.4132 64.0812 82.8879L68.6021 77.936C67.4119 76.905 66.0611 76.055 64.5938 75.4258L62.1892 81.7001Z" fill="#DDA83A"/>
<path d="M72.5423 83.1787L66.5496 86.1768C66.8356 86.8479 67.038 87.5588 67.1501 88.3028L73.816 87.6714C73.618 86.0885 73.1825 84.5762 72.5423 83.1809" fill="#C5192D"/>
<path d="M66.1205 85.3207L72.111 82.3226C71.3696 80.9406 70.4215 79.6822 69.3105 78.5938L64.7896 83.5457C65.3043 84.0777 65.7531 84.6738 66.1183 85.3207" fill="#4C9F38"/>
<path d="M49.9464 89.5817C49.9464 89.447 49.9508 89.3101 49.9574 89.1754L43.2893 88.5771C43.2673 88.9105 43.2563 89.2439 43.2563 89.5817C43.2563 90.8643 43.4147 92.1117 43.7095 93.3039L50.1488 91.4494C50.0168 90.8467 49.9464 90.2241 49.9464 89.5817" fill="#3F7E44"/>
<path d="M65.2823 95.0781C64.8093 95.6565 64.2615 96.1731 63.6565 96.6125L67.1764 102.333C68.4832 101.445 69.647 100.359 70.6238 99.1205L65.2823 95.0781Z" fill="#FCC30B"/>
<path d="M67.2446 89.5816C67.2446 90.2152 67.1786 90.8334 67.0466 91.4273L73.4859 93.284C73.7785 92.0984 73.9347 90.8599 73.9347 89.5816C73.9347 89.2637 73.9259 88.9502 73.9061 88.6367L67.2402 89.2703C67.2424 89.3763 67.2468 89.4779 67.2468 89.5838" fill="#FF3A21"/>
<path d="M52.0165 95.2109L46.6882 99.2753C47.6782 100.501 48.853 101.567 50.1664 102.439L53.6863 96.7254C53.0681 96.2949 52.5049 95.7849 52.0165 95.2109Z" fill="#FD9D24"/>
<path d="M50.0543 88.2121C50.1731 87.4571 50.3931 86.733 50.6923 86.0574L44.7018 83.0615C44.0396 84.4745 43.5842 86.0044 43.3796 87.6116L50.0521 88.2121H50.0543Z" fill="#0A97D9"/>
<path d="M66.3581 102.85L62.8426 97.1387C62.2046 97.5007 61.516 97.7833 60.7922 97.9754L62.033 104.583C63.5752 104.228 65.0316 103.636 66.3581 102.85Z" fill="#A21942"/>
<path d="M66.7892 92.3626C66.556 93.0492 66.2414 93.6982 65.8542 94.2965L71.2002 98.3411C72.0691 97.0893 72.7555 95.7028 73.2219 94.217L66.7892 92.3604V92.3626Z" fill="#26BDE2"/>
<path d="M59.8419 98.1692C59.4349 98.2288 59.0191 98.2597 58.5946 98.2597C58.2536 98.2597 57.917 98.2376 57.587 98.2001L56.3462 104.808C57.081 104.916 57.8312 104.973 58.5946 104.973C59.4393 104.973 60.2709 104.903 61.0805 104.77L59.8397 98.167L59.8419 98.1692Z" fill="#FD6925"/>
<path d="M59.1489 80.9273C59.8925 80.9759 60.6097 81.1172 61.2895 81.3424L63.6941 75.0702C62.2619 74.5625 60.7373 74.2622 59.1489 74.207V80.9273Z" fill="#E5243B"/>
<path d="M56.6366 98.0373C55.8864 97.8629 55.1736 97.5891 54.5136 97.2314L50.9915 102.947C52.3466 103.727 53.8294 104.301 55.398 104.638L56.6366 98.0373V98.0373Z" fill="#DD1367"/>
<path d="M55.9964 81.3022C56.6916 81.0814 57.4242 80.9468 58.1809 80.9114V74.1934C56.5728 74.2353 55.024 74.5289 53.5764 75.0345L55.9964 81.3022Z" fill="#19486A"/>
<path d="M51.4315 94.4379C51.0069 93.8087 50.6593 93.1199 50.4107 92.3848L43.9758 94.237C44.4642 95.778 45.1858 97.213 46.101 98.5023L51.4315 94.4379V94.4379Z" fill="#BF8B2E"/>
<path d="M53.2375 82.7811C53.8029 82.3329 54.4254 81.9532 55.092 81.6552L52.6721 75.3896C51.2311 75.9968 49.9023 76.818 48.7253 77.8159L53.2375 82.7789V82.7811Z" fill="#00689D"/>
<path d="M23.0035 46.4579C23.0035 45.9656 22.8297 45.5815 22.4821 45.3055C22.1345 45.0296 21.5229 44.7448 20.6495 44.4511C19.7739 44.1575 19.0612 43.8727 18.5046 43.5967C16.7006 42.707 15.7964 41.484 15.7964 39.9297C15.7964 39.1548 16.0208 38.4704 16.4718 37.8788C16.9206 37.2871 17.5586 36.8257 18.3792 36.4967C19.202 36.1678 20.1281 36.0022 21.1555 36.0022C22.1829 36.0022 23.0541 36.181 23.8483 36.5409C24.6425 36.8985 25.2607 37.4107 25.7006 38.073C26.1406 38.7354 26.3606 39.4926 26.3606 40.3448H23.0123C23.0123 39.7752 22.8385 39.3336 22.4909 39.0201C22.1433 38.7067 21.6725 38.5499 21.0785 38.5499C20.4845 38.5499 20.0049 38.6824 19.6573 38.9473C19.3098 39.2122 19.136 39.55 19.136 39.9606C19.136 40.3205 19.3274 40.6428 19.7101 40.9364C20.0929 41.2279 20.7661 41.5281 21.7275 41.8394C22.6911 42.1507 23.4831 42.4841 24.1013 42.8439C25.6061 43.716 26.3606 44.9148 26.3606 46.4447C26.3606 47.6678 25.9008 48.6281 24.9835 49.3258C24.0661 50.0234 22.8033 50.3722 21.2039 50.3722C20.0753 50.3722 19.0524 50.1713 18.1372 49.7629C17.222 49.3545 16.5334 48.8003 16.0692 48.0917C15.6072 47.383 15.3762 46.5683 15.3762 45.6477H18.7444C18.7444 46.3961 18.938 46.9503 19.3252 47.3035C19.7123 47.6567 20.3371 47.8356 21.2061 47.8356C21.7605 47.8356 22.2005 47.7141 22.5217 47.4757C22.8451 47.2351 23.0057 46.8995 23.0057 46.4624" fill="white"/>
<path d="M39.2084 36.1921V45.3453C39.2084 46.383 38.9884 47.2793 38.5484 48.0388C38.1084 48.7982 37.477 49.3744 36.6521 49.7718C35.8293 50.1692 34.8569 50.3657 33.7327 50.3657C32.0365 50.3657 30.699 49.9241 29.7222 49.0411C28.7476 48.158 28.2482 46.9481 28.2284 45.4116V36.1921H31.6075V45.4778C31.6449 47.0077 32.3533 47.7738 33.7327 47.7738C34.4279 47.7738 34.9537 47.5818 35.3123 47.1976C35.6687 46.8135 35.8469 46.1887 35.8469 45.3255V36.1921H39.2062H39.2084Z" fill="white"/>
<path d="M48.6881 46.458C48.6881 45.9656 48.5143 45.5815 48.1667 45.3055C47.8191 45.0296 47.2075 44.7448 46.3341 44.4511C45.4585 44.1575 44.7457 43.8727 44.1891 43.5968C42.3852 42.707 41.481 41.484 41.481 39.9275C41.481 39.1526 41.7054 38.4682 42.1564 37.8766C42.6052 37.2849 43.2432 36.8235 44.0637 36.4945C44.8865 36.1656 45.8127 36 46.8401 36C47.8675 36 48.7387 36.1788 49.5328 36.5387C50.327 36.8963 50.9452 37.4085 51.3852 38.0708C51.8252 38.7332 52.0452 39.4904 52.0452 40.3426H48.6969C48.6969 39.773 48.5231 39.3314 48.1755 39.0179C47.8279 38.7045 47.3571 38.5477 46.7631 38.5477C46.1691 38.5477 45.6895 38.6802 45.3419 38.9451C44.9943 39.21 44.8205 39.5478 44.8205 39.9584C44.8205 40.3183 45.0119 40.6406 45.3947 40.9342C45.7775 41.2257 46.4507 41.5259 47.4121 41.8372C48.3757 42.1485 49.1677 42.4819 49.7858 42.8417C51.2906 43.7138 52.0452 44.9126 52.0452 46.4425C52.0452 47.6656 51.5854 48.6259 50.668 49.3236C49.7506 50.0212 48.4879 50.37 46.8885 50.37C45.7599 50.37 44.7369 50.1691 43.8217 49.7607C42.9066 49.3545 42.218 48.7981 41.7538 48.0895C41.2918 47.3808 41.0608 46.5661 41.0608 45.6455H44.4289C44.4289 46.3939 44.6225 46.9481 45.0097 47.3013C45.3947 47.6567 46.0217 47.8334 46.8907 47.8334C47.4451 47.8334 47.8851 47.7119 48.2063 47.4735C48.5297 47.2329 48.6903 46.8973 48.6903 46.4602" fill="white"/>
<path d="M64.9041 38.7928H60.7219V50.1736H57.3626V38.7928H53.2574V36.1921H64.9041V38.7928Z" fill="white"/>
<path d="M69.4821 44.959H72.4784L70.9759 40.1108L69.4821 44.959V44.959ZM73.2814 47.5619H68.6791L67.8761 50.1758H64.2858L69.3941 36.1921H72.5532L77.7011 50.1758H74.0932L73.2792 47.5619H73.2814Z" fill="white"/>
<path d="M82.4906 50.1736H79.1422V36.1921H82.4906V50.1736Z" fill="white"/>
<path d="M96.6583 50.1736H93.3188L88.3798 41.473V50.1736H85.0205V36.1921H88.3798L93.3078 44.8928V36.1921H96.6561V50.1736H96.6583Z" fill="white"/>
<path d="M103.267 44.959H106.263L104.761 40.1108L103.267 44.959ZM107.066 47.5619H102.464L101.661 50.1758H98.0707L103.179 36.1921H106.338L111.486 50.1758H107.878L107.064 47.5619H107.066Z" fill="white"/>
<path d="M116.055 44.2304V47.5817H118.258C118.863 47.5817 119.329 47.4427 119.655 47.1645C119.98 46.8863 120.143 46.4933 120.143 45.9878C120.143 44.8221 119.564 44.2371 118.409 44.2304H116.055V44.2304ZM116.055 42.0205H117.807C118.541 42.0139 119.063 41.8792 119.377 41.6165C119.69 41.3538 119.846 40.9652 119.846 40.4508C119.846 39.8614 119.677 39.4353 119.338 39.1748C118.999 38.9142 118.453 38.784 117.703 38.784H116.058V42.0205H116.055ZM112.696 50.1736V36.1943H117.701C119.494 36.1943 120.858 36.5233 121.793 37.1834C122.726 37.8435 123.194 38.7994 123.194 40.0556C123.194 40.7798 123.027 41.3957 122.697 41.9079C122.365 42.4223 121.879 42.7976 121.234 43.0405C121.96 43.2325 122.521 43.5924 122.908 44.1156C123.295 44.6389 123.493 45.2813 123.493 46.0363C123.493 47.4073 123.06 48.4361 122.195 49.1227C121.331 49.8115 120.051 50.1626 118.352 50.1758H112.696V50.1736Z" fill="white"/>
<path d="M128.894 47.5818H134.742V50.1758H125.535V36.1921H128.894V47.5818Z" fill="white"/>
<path d="M144.994 44.2393H139.712V47.5818H145.951V50.1736H136.352V36.1921H145.968V38.795H139.709V41.7423H144.991V44.2393H144.994Z" fill="white"/>
<path d="M19.0941 57.9337V66.5438H20.2381C21.1819 66.5438 21.9079 66.2082 22.4139 65.5327C22.9199 64.8571 23.1729 63.857 23.1729 62.5258V61.9319C23.1729 60.6095 22.9199 59.6094 22.4139 58.9404C21.9057 58.2693 21.1709 57.9337 20.2007 57.9337H19.0941V57.9337ZM15.803 69.0849V55.3838H20.2007C21.4063 55.3838 22.4909 55.6598 23.4523 56.2073C24.4158 56.7548 25.1682 57.5319 25.7072 58.532C26.2484 59.5321 26.5212 60.6536 26.5278 61.8966V62.528C26.5278 63.7819 26.266 64.9079 25.7358 65.8991C25.2078 66.8926 24.4642 67.6719 23.5029 68.2327C22.5437 68.7935 21.4723 69.0783 20.2931 69.0849H15.803Z" fill="white"/>
<path d="M35.9635 63.2698H31.1323V66.5438H36.9028V69.0849H27.839V55.3838H36.9182V57.9315H31.1301V60.8214H35.9613V63.2675L35.9635 63.2698Z" fill="white"/>
<path d="M44.1166 65.3582L46.8357 55.386H50.5118L45.9183 69.0849H42.317L37.7609 55.386H41.4084L44.1188 65.3582H44.1166Z" fill="white"/>
<path d="M59.5823 63.2698H54.7952V66.5438H60.5195V69.0849H51.5062V55.3838H60.5393V57.9315H54.7974V60.8214H59.5845V63.2675L59.5823 63.2698Z" fill="white"/>
<path d="M64.9414 66.5438H70.1487V69.0849H61.6503V55.3838H64.9414V66.5438V66.5438Z" fill="white"/>
<path d="M79.0475 61.9428C79.0475 60.5829 78.8209 59.5475 78.3677 58.8432C77.9145 58.1367 77.2656 57.7835 76.423 57.7835C74.773 57.7835 73.8996 59.0264 73.8072 61.5101L73.7984 62.5168C73.7984 63.8591 74.0206 64.8923 74.465 65.6121C74.9072 66.334 75.5672 66.6938 76.4428 66.6938C77.3184 66.6938 77.9146 66.3384 78.3655 65.6297C78.8165 64.921 79.0431 63.9011 79.0497 62.572V61.9406L79.0475 61.9428ZM82.3959 62.5168C82.3959 63.8525 82.1495 65.0358 81.6545 66.0646C81.1617 67.0934 80.4577 67.886 79.5491 68.4401C78.6383 68.9965 77.6044 69.2725 76.4406 69.2725C75.2768 69.2725 74.2472 69.0053 73.3452 68.4666C72.4454 67.9302 71.7437 67.1641 71.2421 66.1662C70.7383 65.1683 70.4743 64.0247 70.4501 62.731V61.9605C70.4501 60.6182 70.6943 59.4327 71.1849 58.4083C71.6755 57.3839 72.3794 56.5913 73.2946 56.0328C74.2098 55.4742 75.2504 55.196 76.4208 55.196C77.5912 55.196 78.6075 55.472 79.5139 56.0261C80.4203 56.5781 81.1265 57.3618 81.6281 58.3818C82.1319 59.4017 82.3849 60.5696 82.3937 61.8876V62.5168H82.3959Z" fill="white"/>
<path d="M86.9916 61.8855H89.1475C89.7855 61.8855 90.2695 61.7266 90.6061 61.4064C90.9405 61.0863 91.1077 60.6359 91.1077 60.0509C91.1077 59.4107 90.9361 58.8985 90.5929 58.5165C90.2497 58.1346 89.7811 57.9403 89.1871 57.9337H86.9916V61.8855ZM86.9916 64.4354V69.0849H83.7004V55.386H89.1497C90.1947 55.386 91.1165 55.5781 91.9195 55.9644C92.7225 56.3508 93.3451 56.9005 93.7851 57.6114C94.2251 58.3245 94.4473 59.1303 94.4473 60.0332C94.4473 61.3689 93.9699 62.4374 93.0173 63.2388C92.0647 64.038 90.7557 64.4376 89.0947 64.4376H86.9938L86.9916 64.4354Z" fill="white"/>
<path d="M99.9758 55.3838L103.023 64.9145L106.061 55.3838H110.395V69.0849H107.093V65.8859L107.412 59.3356L104.112 69.0849H101.936L98.625 59.3268L98.944 65.8837V69.0827H95.6528V55.3816H99.9736L99.9758 55.3838Z" fill="white"/>
<path d="M119.995 63.2698H115.149V66.5438H120.933V69.0849H111.858V55.3838H120.952V57.9315H115.151V60.8214H119.998V63.2675L119.995 63.2698Z" fill="white"/>
<path d="M133.444 69.0937H130.173L125.335 60.5697V69.0937H122.044V55.3926H125.335L130.164 63.9166V55.3926H133.446V69.0937H133.444Z" fill="white"/>
<path d="M145.97 57.9337H141.872V69.0849H138.581V57.9337H134.557V55.3838H145.968V57.9337H145.97Z" fill="white"/>
</svg>
