<svg width="19" height="20" viewBox="0 0 19 20" fill="none" xmlns="http://www.w3.org/2000/svg">
<path d="M5.10152 19.8C3.80852 19.8 2.59752 19.245 1.72352 18.36C0.0285157 16.644 -0.443484 13.649 1.93252 11.244L11.6805 1.374C12.6685 0.374003 13.9255 -0.0129969 15.1285 0.314003C16.3115 0.634003 17.2795 1.615 17.5965 2.812C17.9185 4.032 17.5375 5.305 16.5505 6.305L7.22752 15.745C6.69552 16.284 6.09352 16.603 5.48952 16.667C4.89052 16.731 4.31952 16.537 3.91952 16.132C3.19552 15.396 3.09152 14.015 4.29752 12.795L10.8455 6.165C11.1145 5.893 11.5505 5.893 11.8195 6.165C12.0885 6.437 12.0885 6.879 11.8195 7.151L5.27052 13.782C4.70452 14.354 4.65252 14.901 4.89352 15.146C4.99952 15.252 5.15952 15.301 5.34452 15.28C5.62752 15.251 5.95052 15.064 6.25352 14.759L15.5765 5.32C16.2165 4.672 16.4615 3.91 16.2665 3.175C16.169 2.81558 15.9804 2.48743 15.7188 2.22235C15.4572 1.95727 15.1316 1.76426 14.7735 1.662C14.0475 1.465 13.2935 1.714 12.6535 2.362L2.90552 12.232C1.08952 14.071 1.52452 16.188 2.69652 17.375C3.86952 18.562 5.95852 19.004 7.77552 17.163L17.5235 7.293C17.5871 7.22836 17.6629 7.17702 17.7465 7.14197C17.8301 7.10693 17.9199 7.08888 18.0105 7.08888C18.1012 7.08888 18.1909 7.10693 18.2745 7.14197C18.3582 7.17702 18.434 7.22836 18.4975 7.293C18.6269 7.42466 18.6994 7.60189 18.6994 7.7865C18.6994 7.97112 18.6269 8.14834 18.4975 8.28L8.74952 18.15C7.60052 19.312 6.31352 19.8 5.10152 19.8Z" fill="#153A5B"/>
</svg>
