<svg width="21" height="21" viewBox="0 0 21 21" fill="none" xmlns="http://www.w3.org/2000/svg">
<path d="M20.5764 18.3264C19.9067 17.7294 19.3205 17.045 18.8333 16.2917C18.3015 15.2518 17.9828 14.1162 17.8958 12.9514V9.52086C17.9004 7.69142 17.2368 5.92327 16.0297 4.54862C14.8225 3.17397 13.155 2.28743 11.3403 2.05558V1.15975C11.3403 0.913871 11.2426 0.678064 11.0687 0.504202C10.8949 0.330341 10.6591 0.232666 10.4132 0.232666C10.1673 0.232666 9.93151 0.330341 9.75765 0.504202C9.58379 0.678064 9.48611 0.913871 9.48611 1.15975V2.06947C7.68768 2.31803 6.04026 3.20993 4.84898 4.57996C3.6577 5.95 3.00329 7.70534 3.00695 9.52086V12.9514C2.91997 14.1162 2.60124 15.2518 2.06945 16.2917C1.59089 17.0433 1.01403 17.7276 0.354168 18.3264C0.280093 18.3915 0.220725 18.4716 0.180014 18.5614C0.139303 18.6512 0.118182 18.7486 0.118057 18.8472V19.7917C0.118057 19.9759 0.191222 20.1525 0.321455 20.2827C0.451689 20.413 0.628324 20.4861 0.812502 20.4861H20.1181C20.3022 20.4861 20.4789 20.413 20.6091 20.2827C20.7393 20.1525 20.8125 19.9759 20.8125 19.7917V18.8472C20.8124 18.7486 20.7913 18.6512 20.7505 18.5614C20.7098 18.4716 20.6505 18.3915 20.5764 18.3264ZM1.5625 19.0972C2.20862 18.4731 2.7775 17.7736 3.25695 17.0139C3.92682 15.758 4.31766 14.3723 4.40278 12.9514V9.52086C4.37524 8.707 4.51175 7.89591 4.8042 7.13591C5.09664 6.3759 5.53904 5.68252 6.10503 5.09704C6.67103 4.51157 7.34906 4.04598 8.09874 3.72799C8.84842 3.41001 9.65442 3.24614 10.4688 3.24614C11.2831 3.24614 12.0891 3.41001 12.8388 3.72799C13.5884 4.04598 14.2665 4.51157 14.8325 5.09704C15.3985 5.68252 15.8409 6.3759 16.1333 7.13591C16.4257 7.89591 16.5623 8.707 16.5347 9.52086V12.9514C16.6198 14.3723 17.0107 15.758 17.6806 17.0139C18.16 17.7736 18.7289 18.4731 19.375 19.0972H1.5625Z" fill="#153A5B"/>
</svg>
