<svg width="44" height="44" viewBox="0 0 44 44" fill="none" xmlns="http://www.w3.org/2000/svg">
<path d="M22 10C15.3726 10 10 15.3726 10 22C10 28.6274 15.3726 34 22 34C28.6274 34 34 28.6274 34 22C34 15.3726 28.6274 10 22 10ZM11.538 22.75H14.1115C14.1688 23.9952 14.3569 25.1345 14.6492 26.1576H12.3624C11.9045 25.1004 11.6236 23.9522 11.538 22.75ZM25.7019 21.25C25.6455 20.0445 25.5025 18.9026 25.3091 17.8424H27.7674C28.0947 18.8487 28.3193 19.9833 28.387 21.25H25.7019ZM20.1084 26.1576C19.8967 24.9888 19.7928 23.848 19.7736 22.75H24.2265C24.2073 23.848 24.1033 24.9888 23.8916 26.1576H20.1084ZM23.5648 27.6576C23.2131 29.0077 22.7041 30.3838 21.9999 31.763C21.2957 30.3838 20.7868 29.0077 20.4352 27.6576H23.5648ZM19.794 21.25C19.8534 20.0376 20.0067 18.8951 20.2103 17.8424H23.7897C23.9933 18.8951 24.1466 20.0376 24.206 21.25H19.794ZM20.5474 16.3425C21.0161 14.5126 21.5952 13.0689 21.9999 12.18C22.4046 13.0689 22.9838 14.5126 23.4526 16.3425H20.5474ZM24.9912 16.3425C24.5127 14.3594 23.8982 12.7665 23.4421 11.7369C24.0089 12.1403 25.8922 13.6311 27.1768 16.3425H24.9912ZM20.5577 11.7368C20.1016 12.7664 19.4872 14.3594 19.0088 16.3425H16.8229C18.1077 13.6309 19.9911 12.14 20.5577 11.7368ZM18.6909 17.8425C18.4975 18.9026 18.3546 20.0445 18.2982 21.2501H15.6127C15.6805 19.9834 15.905 18.8487 16.2323 17.8425H18.6909ZM14.1131 21.25H11.538C11.6236 20.0478 11.9044 18.8998 12.3623 17.8424H14.6596C14.3652 18.8654 14.1733 20.0039 14.1131 21.25ZM15.6119 22.75H18.2776C18.2946 23.8498 18.3872 24.9892 18.5833 26.1576H16.2331C15.9031 25.1488 15.6777 24.0138 15.6119 22.75ZM18.8939 27.6576C19.2618 29.185 19.8084 30.746 20.5957 32.3133C20.0644 31.9329 18.1331 30.4138 16.8236 27.6576H18.8939ZM23.4025 32.3167C24.1908 30.7482 24.7378 29.1861 25.1061 27.6576H27.1914C25.8858 30.4278 23.9463 31.9344 23.4025 32.3167ZM25.4168 26.1576C25.6129 24.9892 25.7055 23.8498 25.7224 22.75H28.3886C28.3241 24.0161 28.1024 25.1508 27.7772 26.1576H25.4168ZM29.8882 22.75H32.462C32.3764 23.9522 32.0955 25.1003 31.6376 26.1576H29.3506C29.6428 25.1345 29.831 23.9952 29.8882 22.75ZM29.8866 21.25C29.8265 20.0038 29.6346 18.8654 29.3402 17.8424H31.6377C32.0957 18.8997 32.3765 20.0478 32.462 21.25H29.8866ZM30.8315 16.3425H28.8114C28.141 14.7274 27.2669 13.4498 26.4443 12.5007C28.2437 13.3461 29.7641 14.6823 30.8315 16.3425ZM17.5552 12.5009C16.7327 13.45 15.8587 14.7276 15.1883 16.3425H13.1685C14.2358 14.6824 15.7561 13.3463 17.5552 12.5009ZM13.1686 27.6576H15.1761C15.8365 29.2562 16.6982 30.5295 17.515 31.4797C15.7335 30.6332 14.2278 29.3052 13.1686 27.6576ZM26.4854 31.4795C27.3019 30.5294 28.1635 29.2561 28.8237 27.6576H30.8314C29.7723 29.3051 28.2667 30.633 26.4854 31.4795Z" fill="white"/>
</svg>
