<svg width="35" height="25" viewBox="0 0 35 25" fill="none" xmlns="http://www.w3.org/2000/svg">
<path fill-rule="evenodd" clip-rule="evenodd" d="M9.63813 2.93563C11.8245 1.0503 14.613 0.009053 17.5 0C23.3844 0 28.2691 4.375 28.8006 10.0166C32.2831 10.5087 35 13.4247 35 17.0034C35 20.9322 31.7231 24.0625 27.7528 24.0625H21.875C21.5849 24.0625 21.3067 23.9473 21.1016 23.7421C20.8965 23.537 20.7812 23.2588 20.7812 22.9688C20.7812 22.6787 20.8965 22.4005 21.1016 22.1954C21.3067 21.9902 21.5849 21.875 21.875 21.875H27.755C30.5791 21.875 32.8125 19.6612 32.8125 17.0034C32.8125 14.3434 30.5813 12.1297 27.7528 12.1297H26.6591V11.0359C26.6613 6.17969 22.5925 2.1875 17.5 2.1875C15.1372 2.19694 12.8556 3.05032 11.0666 4.59375C9.41062 6.02 8.54437 7.73938 8.54437 9.08906V10.0691L7.57094 10.1762C4.515 10.5109 2.1875 13.02 2.1875 16.0081C2.1875 19.2172 4.87812 21.875 8.27094 21.875H13.125C13.4151 21.875 13.6933 21.9902 13.8984 22.1954C14.1035 22.4005 14.2188 22.6787 14.2188 22.9688C14.2188 23.2588 14.1035 23.537 13.8984 23.7421C13.6933 23.9473 13.4151 24.0625 13.125 24.0625H8.27094C3.73625 24.0625 0 20.4881 0 16.0081C0 12.1516 2.76937 8.95781 6.43562 8.14844C6.74844 6.26062 7.9625 4.37937 9.63813 2.93563Z" fill="#EA8F68"/>
</svg>
