<svg width="94" height="48" viewBox="0 0 94 48" fill="none" xmlns="http://www.w3.org/2000/svg">
<path d="M0.328125 39.2565H17.5V41.7097H0.328125V39.2565V39.2565ZM0.328125 34.5343H17.5V37.0027H0.328125V34.5343V34.5343ZM5.21904 29.8273H12.5938V32.2958H5.21904V29.8273V29.8273ZM5.21904 25.1204H12.5938V27.5889H5.21904V25.1204V25.1204ZM5.21904 20.4135H12.5938V22.8819H5.21904V20.4135V20.4135ZM5.21904 15.6912H12.5938V18.1597H5.21904V15.6912V15.6912ZM0.328125 10.9843H17.5V13.4527H0.328125V10.9843V10.9843ZM0.328125 6.27734H17.5V8.7458H0.328125V6.27734V6.27734ZM19.9531 37.0027H46.3702C46.8148 36.2515 47.1521 35.4082 47.3515 34.5343H19.9531V37.0027ZM44.3157 25.1204H24.8747V27.5889H46.3855C45.8336 26.6536 45.1437 25.8257 44.3157 25.1204ZM24.8594 20.4135V22.8819H44.3157C45.1283 22.192 45.8183 21.3641 46.3702 20.4135H24.8594ZM46.3702 10.9843H19.9531V13.4527H47.3515C47.1368 12.5941 46.7995 11.7662 46.3702 10.9843V10.9843ZM38.2596 6.27734H19.9531V8.7458H44.561C42.8439 7.1666 40.59 6.27734 38.2596 6.27734V6.27734ZM24.8594 15.6912H32.2188V18.1597H24.8594V15.6912ZM39.5935 18.1597H47.2901C47.5048 17.3777 47.6274 16.5345 47.6274 15.6912H39.5935V18.1597V18.1597ZM24.8594 29.8273H32.2188V32.2958H24.8594V29.8273ZM39.5935 29.8273V32.2958H47.6274C47.6274 31.4525 47.5201 30.6093 47.2901 29.8273H39.5935ZM19.9531 41.6943L38.2442 41.725C40.6974 41.725 42.9052 40.7744 44.561 39.2565H19.9531V41.6943ZM49.406 39.2565H61.6716V41.7097H49.406V39.2565ZM49.406 34.5343H61.6716V37.0027H49.406V34.5343ZM54.3122 29.8273H61.6716V32.2958H54.3122V29.8273ZM54.3122 25.1204H61.6716V27.5889H54.3122V25.1204ZM65.0906 10.9843H49.406V13.4527H65.9339L65.0906 10.9843ZM63.4654 6.27734H49.406V8.7458H64.3087L63.4654 6.27734V6.27734ZM76.3903 39.2565H88.6713V41.7097H76.3903V39.2565ZM76.3903 34.5343H88.6713V37.0027H76.3903V34.5343ZM76.3903 29.8273H83.7497V32.2958H76.3903V29.8273ZM76.3903 25.1204H83.7497V27.5889H76.3903V25.1204ZM76.3903 22.8819H83.7497V20.4135H69.7209L69.031 22.4066L68.341 20.4135H54.3122V22.8819H61.6716V20.6128L62.4535 22.8819H75.6084L76.3903 20.6128V22.8819ZM83.765 15.6912H71.3614L70.5182 18.1597H83.765V15.6912ZM74.6271 6.27734L73.7839 8.7458H88.6866V6.27734H74.6271ZM69.031 41.6943L69.8742 39.2565H68.1724L69.031 41.6943ZM67.4058 37.0027H70.6561L71.5301 34.5343H66.5318L67.4058 37.0027V37.0027ZM65.7499 32.2958H72.312L73.1706 29.8273H64.8913L65.7499 32.2958V32.2958ZM64.1094 27.5889H73.9679L74.8111 25.1204H63.2661L64.1094 27.5889ZM54.3122 18.1597H67.5744L66.7312 15.6912H54.3122V18.1597ZM72.1434 13.4527H88.6713V10.9843H72.9866L72.1434 13.4527Z" fill="white"/>
</svg>
