<svg width="120" height="34" viewBox="0 0 120 34" fill="none" xmlns="http://www.w3.org/2000/svg">
<g clip-path="url(#clip0_4309_60609)">
<path fill-rule="evenodd" clip-rule="evenodd" d="M22.1 27.3523V31.2523C22.1 32.0523 21.8 32.6523 20.7 32.6523H1.4C0.3 32.6523 0 32.1523 0 31.2523V3.05234C0 1.95234 0.5 1.65234 1.4 1.65234H6C6.8 1.65234 7.4 1.95234 7.4 3.05234V26.0523H20.9C21.9 25.9523 22.1 26.4523 22.1 27.3523Z" fill="white"/>
<path fill-rule="evenodd" clip-rule="evenodd" d="M43.3996 12.1516C43.3996 9.15156 41.2996 7.35156 38.1996 7.35156C35.0996 7.35156 32.9996 9.05156 32.9996 12.1516V21.9516C32.9996 24.9516 35.0996 26.7516 38.1996 26.7516C41.2996 26.7516 43.3996 25.0516 43.3996 21.9516V12.1516ZM50.6996 22.5516C50.6996 29.9516 43.6996 33.1516 38.0996 33.1516C32.4996 33.1516 25.5996 29.9516 25.5996 22.5516V11.4516C25.5996 4.05156 32.4996 0.851562 38.0996 0.851562C43.6996 0.851562 50.6996 4.05156 50.6996 11.4516V22.5516Z" fill="white"/>
<path fill-rule="evenodd" clip-rule="evenodd" d="M67.9008 18.4516V14.8516L73.7008 10.7516C73.7008 10.7516 72.3008 8.15156 69.8008 8.15156H62.7008V25.8516H70.5008C72.8008 25.8516 74.1008 22.7516 74.1008 22.7516L67.9008 18.4516ZM81.6008 23.4516C81.6008 29.4516 77.0008 32.4516 70.5008 32.4516H56.7008C55.6008 32.4516 55.3008 31.9516 55.3008 31.0516V2.75156C55.3008 1.95156 55.6008 1.35156 56.7008 1.35156H69.8008C77.4008 1.35156 80.7008 5.45156 80.7008 9.85156C80.7008 14.5516 77.7008 16.1516 77.3008 16.2516C77.7008 16.6516 81.6008 18.4516 81.6008 23.4516Z" fill="white"/>
<path fill-rule="evenodd" clip-rule="evenodd" d="M101.701 20.8508L98.2006 10.4508L94.7006 20.8508H101.701ZM111.901 32.5508H107.001C106.001 32.5508 105.601 32.2508 105.201 31.1508L103.901 27.4508H92.4006L91.1006 31.1508C90.7006 32.2508 90.4006 32.5508 89.3006 32.5508H84.4006C83.4006 32.5508 83.4006 31.7508 83.6006 31.2508L94.0006 3.05078C94.4006 2.05078 94.9006 1.55078 95.9006 1.55078H100.401C101.401 1.55078 101.901 2.05078 102.301 3.05078L112.601 31.2508C112.901 31.7508 112.901 32.5508 111.901 32.5508Z" fill="white"/>
<path fill-rule="evenodd" clip-rule="evenodd" d="M117.7 6.75078H117.1C117 6.75078 116.9 6.75078 116.8 6.55078L116.3 5.75078C116.3 5.65078 116.2 5.65078 116.2 5.45078V5.05078C116.2 4.98411 116.233 4.95078 116.3 4.95078H116.4C116.6 4.95078 116.9 4.75078 116.9 4.55078C116.9 4.25078 116.7 4.15078 116.4 4.15078H115.7V6.65078C115.7 6.75078 115.6 6.75078 115.6 6.75078H115.1C115.033 6.75078 115 6.71745 115 6.65078V3.65078C115 3.58411 115.033 3.55078 115.1 3.55078H116.4C117 3.55078 117.2 3.65078 117.4 3.85078C117.6 4.05078 117.7 4.35078 117.7 4.65078C117.7 5.15078 117.3 5.55078 117 5.65078L117.7 6.65078C117.8 6.65078 117.8 6.75078 117.7 6.75078Z" fill="white"/>
<path fill-rule="evenodd" clip-rule="evenodd" d="M116.301 7.75078C114.901 7.75078 113.701 6.55078 113.701 5.15078C113.701 3.65078 114.901 2.55078 116.301 2.55078C117.701 2.55078 118.901 3.75078 118.901 5.15078C119.001 6.55078 117.801 7.75078 116.301 7.75078ZM116.301 1.55078C114.401 1.55078 112.801 3.15078 112.801 5.05078C112.801 6.95078 114.401 8.55078 116.301 8.55078C118.201 8.55078 119.801 6.95078 119.801 5.05078C119.801 3.15078 118.301 1.55078 116.301 1.55078Z" fill="white"/>
</g>
<defs>
<clipPath id="clip0_4309_60609">
<rect width="119.8" height="32.3" fill="white" transform="translate(0 0.851562)"/>
</clipPath>
</defs>
</svg>
